<svg width="37" height="28" viewBox="0 0 37 28" fill="none" xmlns="http://www.w3.org/2000/svg">
<path d="M30.784 3.0592C30.7773 3.0394 30.7572 3.02621 30.7371 3.01961C28.4306 1.97693 25.9967 1.23782 23.5025 0.808868C23.4556 0.802269 23.4087 0.822066 23.3885 0.861661C23.06 1.45559 22.7583 2.06272 22.4901 2.68305C19.7947 2.28049 17.0592 2.28049 14.3638 2.68305C14.0956 2.06272 13.7872 1.45559 13.4519 0.861661C13.4251 0.822066 13.3849 0.802269 13.338 0.808868C10.837 1.23122 8.40988 1.97693 6.10341 3.01301C6.07659 3.02621 6.06318 3.0394 6.04977 3.0592C1.44353 9.83 0.183016 16.4358 0.799864 22.9558C0.806569 22.9888 0.819978 23.0152 0.846798 23.035C3.52874 24.9884 6.53252 26.4798 9.71733 27.4499C9.76427 27.4631 9.8112 27.4499 9.84472 27.4103C10.5286 26.493 11.1388 25.5229 11.6617 24.5067C11.6886 24.4539 11.6684 24.3879 11.6148 24.3549C11.6081 24.3549 11.6081 24.3483 11.6014 24.3483C10.6426 23.9853 9.71733 23.5498 8.83229 23.0482C8.77865 23.0152 8.75854 22.9492 8.79206 22.8965C8.79877 22.8833 8.81217 22.8701 8.81888 22.8635C9.00662 22.7249 9.19435 22.5863 9.36868 22.4411C9.4022 22.4147 9.44243 22.4081 9.48266 22.4279C15.2958 25.0412 21.5916 25.0412 27.3444 22.4279C27.3846 22.4081 27.4249 22.4147 27.4584 22.4411C27.6394 22.5863 27.8205 22.7315 28.0082 22.8701C28.0618 22.9097 28.0685 22.9756 28.0283 23.0284C28.0216 23.0416 28.0082 23.0482 27.9948 23.0548C27.1097 23.563 26.1845 23.9985 25.219 24.3549C25.1586 24.3747 25.1318 24.4407 25.1519 24.5001C25.1519 24.5067 25.1519 24.5067 25.1586 24.5133C25.6883 25.5229 26.2985 26.493 26.9756 27.4169C27.0025 27.4565 27.0561 27.4697 27.103 27.4565C30.3013 26.493 33.305 25.0016 35.9937 23.0416C36.0205 23.0218 36.0339 22.9954 36.0406 22.9624C36.7782 15.4195 34.7935 8.86651 30.784 3.0592ZM12.5267 18.9831C10.7767 18.9831 9.33515 17.3993 9.33515 15.4591C9.33515 13.519 10.7499 11.9352 12.5267 11.9352C14.3169 11.9352 15.745 13.5322 15.7182 15.4591C15.7182 17.4059 14.3035 18.9831 12.5267 18.9831ZM24.3339 18.9831C22.584 18.9831 21.1424 17.3993 21.1424 15.4591C21.1424 13.519 22.5571 11.9352 24.3339 11.9352C26.1241 11.9352 27.5523 13.5322 27.5254 15.4591C27.5254 17.4059 26.1308 18.9831 24.3339 18.9831Z" fill="#8A8A8A"/>
</svg>
