<svg width="15" height="11" viewBox="0 0 15 11" fill="none" xmlns="http://www.w3.org/2000/svg">
<path d="M14.7147 3.63285C14.8281 3.54409 15 3.62651 15 3.76599V9.62421C15 10.3818 14.3709 11 13.5927 11H1.40726C0.629053 11 0 10.3818 0 9.62421V3.76916C0 3.62651 0.168612 3.54726 0.285344 3.63602C0.940337 4.13372 1.81258 4.76772 4.79896 6.88847C5.41829 7.32911 6.45914 8.25793 7.5 8.25159C8.54734 8.2611 9.6109 7.31326 10.2043 6.88847C13.1939 4.76455 14.0597 4.13055 14.7147 3.63285ZM7.5 7.33228C8.18093 7.34496 9.15694 6.49539 9.64981 6.14669C13.5376 3.38876 13.8327 3.14784 14.7309 2.45994C14.8995 2.32997 15 2.13026 15 1.91787V1.37579C15 0.618156 14.3709 0 13.5927 0H1.40726C0.629053 0 0 0.614986 0 1.37579V1.92104C0 2.13343 0.100519 2.32997 0.269131 2.46311C1.16732 3.14467 1.46239 3.38876 5.35019 6.14669C5.84306 6.49539 6.81907 7.34496 7.5 7.33228Z" fill="#8A8A8A"/>
</svg>
