<svg width="18" height="18" viewBox="0 0 18 18" fill="none" xmlns="http://www.w3.org/2000/svg">
<path d="M9 0C4.02943 0 0 4.02943 0 9C0 13.9706 4.02943 18 9 18C13.9706 18 18 13.9706 18 9C18 4.02943 13.9706 0 9 0ZM1.28571 9C1.28571 8.72104 1.30236 8.44453 1.33206 8.17332L6.42863 11.5714V12.8571C6.42863 13.5669 7.00463 14.1429 7.71435 14.1429V16.5986C4.07188 15.9828 1.28578 12.8146 1.28578 9.00007L1.28571 9ZM14.1429 14.7332V14.143C14.1429 13.4333 13.5669 12.8573 12.8571 12.8573H11.5714V10.2859C11.5714 9.57615 10.9954 9.00015 10.2857 9.00015H5.14286V7.71443H6.42857C7.13829 7.71443 7.71429 7.13843 7.71429 6.42872V5.143H10.2857C10.9954 5.143 11.5714 4.567 11.5714 3.85729V1.73586C14.5633 2.79786 16.7143 5.64958 16.7143 9.00015C16.7143 11.2771 15.7166 13.3201 14.1429 14.7333V14.7332Z" fill="#9B9B9B"/>
</svg>
