<svg width="19" height="18" viewBox="0 0 19 18" fill="none" xmlns="http://www.w3.org/2000/svg">
<path d="M9.2984 1.60526C7.665 3.18012 7.23162 5.47824 8.00266 7.43327L0.348126 14.8135L0 18L4.36669 17.279L4.5494 15.3417L6.5587 15.1656L6.74141 13.2283L8.75072 13.0521L11.2908 10.6031C13.3187 11.3465 15.7022 10.9286 17.3355 9.35375C19.5548 7.21393 19.5548 3.74456 17.3355 1.60487C15.1161 -0.534957 11.5178 -0.534957 9.29854 1.60487L9.2984 1.60526ZM13.4995 3.19022C14.1047 2.60666 15.0861 2.60666 15.6915 3.19022C16.2968 3.77377 16.2968 4.71994 15.6915 5.30367C15.0863 5.88723 14.1049 5.88723 13.4995 5.30367C12.8942 4.72011 12.8942 3.77395 13.4995 3.19022Z" fill="#9B9B9B"/>
</svg>
