<svg width="24" height="24" viewBox="0 0 24 24" fill="none" xmlns="http://www.w3.org/2000/svg">
<path d="M12 0C5.37509 0 0 5.37509 0 12C0 18.6249 5.37509 24 12 24C18.6249 24 24 18.6249 24 12C24 5.37509 18.6294 0 12 0ZM5.91849 12.403L5.9683 12.3215L9.0883 7.44C9.13358 7.36755 9.24226 7.3766 9.27396 7.45358C9.79472 8.62189 10.2475 10.0755 10.0347 10.9811C9.94415 11.3525 9.69962 11.8596 9.41887 12.3215C9.38264 12.3894 9.34189 12.4574 9.30113 12.5208C9.28302 12.5525 9.24679 12.566 9.21057 12.566H6C5.92302 12.566 5.87321 12.4755 5.91849 12.403ZM19.834 14.083C19.834 14.1283 19.8068 14.1691 19.766 14.1826C19.526 14.2868 18.6974 14.6672 18.3532 15.1426C17.4792 16.3698 16.8045 18.1132 15.3057 18.1132H9.05208C6.83321 18.1132 5.04 16.3109 5.04 14.0875V14.0151C5.04 13.9562 5.08981 13.9064 5.14868 13.9064H8.63547C8.7034 13.9064 8.75321 13.9698 8.74868 14.0377C8.72604 14.2642 8.76679 14.4951 8.87094 14.7079C9.07925 15.1336 9.50943 15.3962 9.97132 15.3962H11.6966V14.0468H9.98943C9.9034 14.0468 9.84906 13.9472 9.89887 13.8747C9.91698 13.8475 9.93962 13.8158 9.96226 13.7842C10.1253 13.5532 10.3562 13.2 10.5826 12.7925C10.7411 12.5208 10.8906 12.2264 11.0128 11.9321C11.0355 11.8777 11.0581 11.8234 11.0762 11.7736C11.1079 11.6785 11.1442 11.5925 11.1668 11.5064C11.1894 11.434 11.2121 11.3525 11.2302 11.28C11.2891 11.0309 11.3117 10.7683 11.3117 10.4921C11.3117 10.3834 11.3072 10.2747 11.2981 10.166C11.2936 10.0483 11.28 9.93057 11.2619 9.81283C11.2528 9.70868 11.2347 9.60906 11.2121 9.50038C11.1894 9.34189 11.1532 9.18793 11.1125 9.03396L11.0989 8.97509C11.0672 8.86642 11.0445 8.76679 11.0083 8.65811C10.9087 8.32302 10.8 7.99245 10.6823 7.68453C10.637 7.56226 10.5917 7.44453 10.5419 7.32679C10.4694 7.15019 10.397 6.9917 10.3291 6.83774C10.2928 6.76981 10.2657 6.70642 10.234 6.64302C10.2023 6.57057 10.166 6.49811 10.1298 6.43019C10.1072 6.37585 10.0755 6.32604 10.0574 6.28075L9.85811 5.88679C9.82642 5.83245 9.87623 5.76906 9.93509 5.78717L11.2528 6.14491H11.2574C11.2619 6.14491 11.2619 6.14491 11.2619 6.14491L11.434 6.19472L11.6242 6.24906L11.6966 6.26717V5.48377C11.6966 5.1034 12 4.8 12.3758 4.8C12.5615 4.8 12.7336 4.87698 12.8558 4.99925C12.9781 5.12604 13.0551 5.29358 13.0551 5.48377V6.64755L13.1955 6.6883C13.2045 6.69283 13.2181 6.69736 13.2272 6.70642C13.2634 6.73359 13.3132 6.76981 13.3721 6.81962C13.4219 6.86038 13.4762 6.90566 13.5396 6.95547C13.6664 7.05962 13.8204 7.19094 13.9834 7.34038C14.0287 7.3766 14.0694 7.41736 14.1102 7.45811C14.323 7.65736 14.563 7.89283 14.794 8.15094C14.8574 8.2234 14.9208 8.29585 14.9842 8.37736C15.0475 8.45434 15.1155 8.53585 15.1743 8.61283C15.2513 8.71698 15.3374 8.82566 15.4098 8.93434C15.446 8.98868 15.4823 9.04302 15.5185 9.09283C15.6136 9.23321 15.6951 9.38264 15.7721 9.52755C15.8038 9.59547 15.84 9.66792 15.8717 9.74038C15.9577 9.93509 16.0302 10.1343 16.0709 10.3381C16.0845 10.3834 16.0936 10.4287 16.0981 10.4694V10.4785C16.1117 10.5374 16.1162 10.6008 16.1208 10.6642C16.1389 10.8679 16.1298 11.0717 16.0845 11.28C16.0664 11.366 16.0392 11.4521 16.0121 11.5381C15.9804 11.6242 15.9532 11.7102 15.9125 11.7917C15.84 11.9638 15.7494 12.1358 15.6453 12.2943C15.6136 12.3532 15.5728 12.4166 15.5321 12.4755C15.4868 12.5389 15.446 12.5977 15.4053 12.6566C15.3509 12.7291 15.2921 12.806 15.2332 12.8785C15.1789 12.9509 15.1245 13.0234 15.0657 13.0868C14.9842 13.1864 14.9026 13.277 14.8211 13.3675C14.7713 13.4264 14.717 13.4853 14.6626 13.5396C14.6083 13.5985 14.554 13.6528 14.5042 13.7026C14.4226 13.7842 14.3547 13.8475 14.2958 13.9019L14.16 14.0287C14.1419 14.0468 14.1147 14.0559 14.0875 14.0559H13.037V15.3962H14.3592C14.6536 15.3962 14.9343 15.2921 15.1653 15.0974C15.2423 15.0294 15.5819 14.7351 15.9849 14.2913C15.9985 14.2777 16.0166 14.2642 16.0347 14.2596L19.6845 13.2045C19.7525 13.1864 19.8204 13.2362 19.8204 13.3087V14.083H19.834Z" fill="white"/>
</svg>
