<svg width="1110" height="1131" viewBox="0 0 1110 1131" fill="none" xmlns="http://www.w3.org/2000/svg">
<path d="M487.074 1050.83C487.267 1050.89 487.414 1051 487.516 1051.16C487.629 1051.3 487.686 1051.49 487.686 1051.7C487.686 1051.97 487.601 1052.19 487.431 1052.36C487.261 1052.53 487.051 1052.62 486.802 1052.62C486.53 1052.62 486.309 1052.53 486.139 1052.36C485.98 1052.18 485.901 1051.96 485.901 1051.7C485.901 1051.56 485.912 1051.43 485.935 1051.31C485.969 1051.17 486.031 1050.98 486.122 1050.73L486.836 1048.39H487.652L487.074 1050.83ZM494.995 1049.1C496.513 1049.1 497.703 1049.46 498.565 1050.19C499.426 1050.91 499.857 1051.91 499.857 1053.18C499.857 1054.45 499.426 1055.45 498.565 1056.17C497.703 1056.89 496.513 1057.24 494.995 1057.24H491.799V1061H490.541V1049.1H494.995ZM494.961 1056.14C496.139 1056.14 497.04 1055.88 497.664 1055.37C498.287 1054.85 498.599 1054.12 498.599 1053.18C498.599 1052.22 498.287 1051.48 497.664 1050.97C497.04 1050.45 496.139 1050.19 494.961 1050.19H491.799V1056.14H494.961ZM502.488 1048.39H503.695V1061H502.488V1048.39ZM510.181 1051.99C511.348 1051.99 512.244 1052.28 512.867 1052.87C513.49 1053.45 513.802 1054.31 513.802 1055.46V1061H512.646V1059.61C512.374 1060.07 511.972 1060.43 511.439 1060.69C510.918 1060.95 510.294 1061.09 509.569 1061.09C508.572 1061.09 507.778 1060.85 507.189 1060.37C506.6 1059.89 506.305 1059.27 506.305 1058.48C506.305 1057.72 506.577 1057.11 507.121 1056.65C507.676 1056.18 508.555 1055.95 509.756 1055.95H512.595V1055.41C512.595 1054.64 512.38 1054.05 511.949 1053.66C511.518 1053.25 510.889 1053.04 510.062 1053.04C509.495 1053.04 508.951 1053.14 508.43 1053.33C507.909 1053.51 507.461 1053.77 507.087 1054.1L506.543 1053.2C506.996 1052.81 507.54 1052.52 508.175 1052.31C508.81 1052.1 509.478 1051.99 510.181 1051.99ZM509.756 1060.13C510.436 1060.13 511.02 1059.98 511.507 1059.67C511.994 1059.36 512.357 1058.9 512.595 1058.31V1056.85H509.79C508.26 1056.85 507.495 1057.38 507.495 1058.45C507.495 1058.97 507.693 1059.38 508.09 1059.69C508.487 1059.99 509.042 1060.13 509.756 1060.13ZM524.428 1052.06L519.957 1062.07C519.595 1062.91 519.175 1063.5 518.699 1063.86C518.223 1064.21 517.651 1064.38 516.982 1064.38C516.552 1064.38 516.149 1064.32 515.775 1064.18C515.401 1064.04 515.078 1063.84 514.806 1063.57L515.367 1062.67C515.821 1063.12 516.365 1063.35 516.999 1063.35C517.407 1063.35 517.753 1063.23 518.036 1063.01C518.331 1062.78 518.603 1062.39 518.852 1061.85L519.243 1060.98L515.248 1052.06H516.506L519.872 1059.66L523.238 1052.06H524.428ZM535.287 1060.46C535.06 1060.66 534.777 1060.82 534.437 1060.93C534.108 1061.03 533.762 1061.09 533.4 1061.09C532.561 1061.09 531.915 1060.86 531.462 1060.4C531.008 1059.95 530.782 1059.31 530.782 1058.48V1053.08H529.184V1052.06H530.782V1050.1H531.989V1052.06H534.709V1053.08H531.989V1058.42C531.989 1058.95 532.119 1059.36 532.38 1059.64C532.652 1059.91 533.037 1060.05 533.536 1060.05C533.785 1060.05 534.023 1060.01 534.25 1059.93C534.488 1059.85 534.692 1059.74 534.862 1059.59L535.287 1060.46ZM540.823 1061.09C539.962 1061.09 539.186 1060.89 538.494 1060.51C537.803 1060.11 537.259 1059.57 536.862 1058.88C536.466 1058.18 536.267 1057.4 536.267 1056.53C536.267 1055.66 536.466 1054.87 536.862 1054.18C537.259 1053.49 537.803 1052.95 538.494 1052.57C539.186 1052.18 539.962 1051.99 540.823 1051.99C541.685 1051.99 542.461 1052.18 543.152 1052.57C543.844 1052.95 544.382 1053.49 544.767 1054.18C545.164 1054.87 545.362 1055.66 545.362 1056.53C545.362 1057.4 545.164 1058.18 544.767 1058.88C544.382 1059.57 543.844 1060.11 543.152 1060.51C542.461 1060.89 541.685 1061.09 540.823 1061.09ZM540.823 1060.01C541.458 1060.01 542.025 1059.87 542.523 1059.59C543.033 1059.29 543.43 1058.88 543.713 1058.35C543.997 1057.82 544.138 1057.21 544.138 1056.53C544.138 1055.85 543.997 1055.24 543.713 1054.71C543.43 1054.18 543.033 1053.77 542.523 1053.49C542.025 1053.19 541.458 1053.04 540.823 1053.04C540.189 1053.04 539.616 1053.19 539.106 1053.49C538.608 1053.77 538.211 1054.18 537.916 1054.71C537.633 1055.24 537.491 1055.85 537.491 1056.53C537.491 1057.21 537.633 1057.82 537.916 1058.35C538.211 1058.88 538.608 1059.29 539.106 1059.59C539.616 1059.87 540.189 1060.01 540.823 1060.01ZM560.946 1059.91V1061H552.531V1049.1H560.691V1050.19H553.789V1054.42H559.943V1055.49H553.789V1059.91H560.946ZM566.643 1051.99C567.81 1051.99 568.706 1052.28 569.329 1052.87C569.952 1053.45 570.264 1054.31 570.264 1055.46V1061H569.108V1059.61C568.836 1060.07 568.434 1060.43 567.901 1060.69C567.38 1060.95 566.756 1061.09 566.031 1061.09C565.034 1061.09 564.24 1060.85 563.651 1060.37C563.062 1059.89 562.767 1059.27 562.767 1058.48C562.767 1057.72 563.039 1057.11 563.583 1056.65C564.138 1056.18 565.017 1055.95 566.218 1055.95H569.057V1055.41C569.057 1054.64 568.842 1054.05 568.411 1053.66C567.98 1053.25 567.351 1053.04 566.524 1053.04C565.957 1053.04 565.413 1053.14 564.892 1053.33C564.371 1053.51 563.923 1053.77 563.549 1054.1L563.005 1053.2C563.458 1052.81 564.002 1052.52 564.637 1052.31C565.272 1052.1 565.94 1051.99 566.643 1051.99ZM566.218 1060.13C566.898 1060.13 567.482 1059.98 567.969 1059.67C568.456 1059.36 568.819 1058.9 569.057 1058.31V1056.85H566.252C564.722 1056.85 563.957 1057.38 563.957 1058.45C563.957 1058.97 564.155 1059.38 564.552 1059.69C564.949 1059.99 565.504 1060.13 566.218 1060.13ZM574.698 1053.81C574.982 1053.21 575.401 1052.75 575.956 1052.45C576.523 1052.14 577.22 1051.99 578.047 1051.99V1053.16L577.758 1053.15C576.818 1053.15 576.081 1053.43 575.548 1054.01C575.016 1054.59 574.749 1055.4 574.749 1056.44V1061H573.542V1052.06H574.698V1053.81ZM584.789 1051.99C585.911 1051.99 586.8 1052.32 587.458 1052.98C588.126 1053.62 588.461 1054.57 588.461 1055.81V1061H587.254V1055.93C587.254 1055 587.021 1054.3 586.557 1053.81C586.092 1053.32 585.429 1053.08 584.568 1053.08C583.604 1053.08 582.839 1053.37 582.273 1053.94C581.717 1054.51 581.44 1055.3 581.44 1056.31V1061H580.233V1052.06H581.389V1053.71C581.717 1053.16 582.171 1052.74 582.749 1052.45C583.338 1052.14 584.018 1051.99 584.789 1051.99ZM591.741 1048.3C592.002 1048.3 592.217 1048.39 592.387 1048.57C592.557 1048.74 592.642 1048.96 592.642 1049.22C592.642 1049.35 592.619 1049.5 592.574 1049.66C592.54 1049.81 592.489 1049.98 592.421 1050.19L591.69 1052.53H590.874L591.469 1050.09C591.276 1050.03 591.123 1049.93 591.01 1049.78C590.897 1049.62 590.84 1049.43 590.84 1049.22C590.84 1048.95 590.925 1048.73 591.095 1048.56C591.265 1048.39 591.48 1048.3 591.741 1048.3ZM607.375 1057.82H600.745L599.317 1061H598.008L603.448 1049.1H604.689L610.129 1061H608.803L607.375 1057.82ZM606.916 1056.8L604.06 1050.41L601.204 1056.8H606.916ZM624.57 1052.06V1059.91C624.57 1061.43 624.196 1062.55 623.448 1063.28C622.712 1064.01 621.595 1064.38 620.099 1064.38C619.272 1064.38 618.484 1064.26 617.736 1064.01C617 1063.77 616.399 1063.44 615.934 1063.01L616.546 1062.09C616.977 1062.47 617.498 1062.77 618.11 1062.99C618.734 1063.2 619.385 1063.31 620.065 1063.31C621.199 1063.31 622.032 1063.05 622.564 1062.51C623.097 1061.99 623.363 1061.18 623.363 1060.06V1058.93C622.989 1059.49 622.496 1059.92 621.884 1060.22C621.284 1060.51 620.615 1060.66 619.878 1060.66C619.04 1060.66 618.275 1060.48 617.583 1060.12C616.903 1059.74 616.365 1059.23 615.968 1058.57C615.583 1057.9 615.39 1057.15 615.39 1056.31C615.39 1055.47 615.583 1054.72 615.968 1054.06C616.365 1053.41 616.903 1052.9 617.583 1052.53C618.263 1052.17 619.028 1051.99 619.878 1051.99C620.638 1051.99 621.323 1052.14 621.935 1052.45C622.547 1052.75 623.04 1053.2 623.414 1053.77V1052.06H624.57ZM619.997 1059.59C620.643 1059.59 621.227 1059.45 621.748 1059.18C622.27 1058.9 622.672 1058.51 622.955 1058.01C623.25 1057.51 623.397 1056.94 623.397 1056.31C623.397 1055.67 623.25 1055.11 622.955 1054.62C622.672 1054.13 622.27 1053.74 621.748 1053.47C621.238 1053.19 620.655 1053.04 619.997 1053.04C619.351 1053.04 618.768 1053.18 618.246 1053.45C617.736 1053.72 617.334 1054.11 617.039 1054.61C616.756 1055.11 616.614 1055.67 616.614 1056.31C616.614 1056.94 616.756 1057.51 617.039 1058.01C617.334 1058.51 617.736 1058.9 618.246 1059.18C618.768 1059.45 619.351 1059.59 619.997 1059.59ZM631.074 1051.99C632.241 1051.99 633.136 1052.28 633.76 1052.87C634.383 1053.45 634.695 1054.31 634.695 1055.46V1061H633.539V1059.61C633.267 1060.07 632.864 1060.43 632.332 1060.69C631.81 1060.95 631.187 1061.09 630.462 1061.09C629.464 1061.09 628.671 1060.85 628.082 1060.37C627.492 1059.89 627.198 1059.27 627.198 1058.48C627.198 1057.72 627.47 1057.11 628.014 1056.65C628.569 1056.18 629.447 1055.95 630.649 1055.95H633.488V1055.41C633.488 1054.64 633.272 1054.05 632.842 1053.66C632.411 1053.25 631.782 1053.04 630.955 1053.04C630.388 1053.04 629.844 1053.14 629.323 1053.33C628.801 1053.51 628.354 1053.77 627.98 1054.1L627.436 1053.2C627.889 1052.81 628.433 1052.52 629.068 1052.31C629.702 1052.1 630.371 1051.99 631.074 1051.99ZM630.649 1060.13C631.329 1060.13 631.912 1059.98 632.4 1059.67C632.887 1059.36 633.25 1058.9 633.488 1058.31V1056.85H630.683C629.153 1056.85 628.388 1057.38 628.388 1058.45C628.388 1058.97 628.586 1059.38 628.983 1059.69C629.379 1059.99 629.935 1060.13 630.649 1060.13ZM649.125 1051.99C650.247 1051.99 651.125 1052.31 651.76 1052.96C652.406 1053.6 652.729 1054.56 652.729 1055.81V1061H651.522V1055.93C651.522 1055 651.295 1054.3 650.842 1053.81C650.4 1053.32 649.771 1053.08 648.955 1053.08C648.026 1053.08 647.295 1053.37 646.762 1053.94C646.229 1054.51 645.963 1055.3 645.963 1056.31V1061H644.756V1055.93C644.756 1055 644.529 1054.3 644.076 1053.81C643.634 1053.32 642.999 1053.08 642.172 1053.08C641.254 1053.08 640.523 1053.37 639.979 1053.94C639.446 1054.51 639.18 1055.3 639.18 1056.31V1061H637.973V1052.06H639.129V1053.69C639.446 1053.15 639.888 1052.73 640.455 1052.43C641.022 1052.14 641.673 1051.99 642.41 1051.99C643.158 1051.99 643.804 1052.15 644.348 1052.47C644.903 1052.78 645.317 1053.25 645.589 1053.88C645.918 1053.29 646.388 1052.83 647 1052.5C647.623 1052.16 648.332 1051.99 649.125 1051.99ZM663.822 1056.9H656.342C656.41 1057.83 656.767 1058.59 657.413 1059.16C658.059 1059.73 658.875 1060.01 659.861 1060.01C660.416 1060.01 660.926 1059.92 661.391 1059.72C661.855 1059.52 662.258 1059.23 662.598 1058.84L663.278 1059.62C662.881 1060.1 662.382 1060.46 661.782 1060.71C661.192 1060.96 660.541 1061.09 659.827 1061.09C658.909 1061.09 658.093 1060.89 657.379 1060.51C656.676 1060.11 656.126 1059.57 655.73 1058.88C655.333 1058.18 655.135 1057.4 655.135 1056.53C655.135 1055.66 655.322 1054.87 655.696 1054.18C656.081 1053.49 656.602 1052.95 657.26 1052.57C657.928 1052.18 658.676 1051.99 659.504 1051.99C660.331 1051.99 661.073 1052.18 661.731 1052.57C662.388 1052.95 662.904 1053.49 663.278 1054.18C663.652 1054.86 663.839 1055.64 663.839 1056.53L663.822 1056.9ZM659.504 1053.03C658.642 1053.03 657.917 1053.3 657.328 1053.86C656.75 1054.4 656.421 1055.12 656.342 1056H662.683C662.603 1055.12 662.269 1054.4 661.68 1053.86C661.102 1053.3 660.376 1053.03 659.504 1053.03ZM670.745 1052.06H671.952V1061H670.745V1052.06ZM671.357 1050.1C671.107 1050.1 670.898 1050.02 670.728 1049.85C670.558 1049.68 670.473 1049.47 670.473 1049.24C670.473 1049.01 670.558 1048.81 670.728 1048.64C670.898 1048.47 671.107 1048.39 671.357 1048.39C671.606 1048.39 671.816 1048.47 671.986 1048.64C672.156 1048.8 672.241 1048.99 672.241 1049.22C672.241 1049.47 672.156 1049.68 671.986 1049.85C671.816 1050.02 671.606 1050.1 671.357 1050.1ZM679.866 1051.99C680.988 1051.99 681.878 1052.32 682.535 1052.98C683.204 1053.62 683.538 1054.57 683.538 1055.81V1061H682.331V1055.93C682.331 1055 682.099 1054.3 681.634 1053.81C681.169 1053.32 680.506 1053.08 679.645 1053.08C678.682 1053.08 677.917 1053.37 677.35 1053.94C676.795 1054.51 676.517 1055.3 676.517 1056.31V1061H675.31V1052.06H676.466V1053.71C676.795 1053.16 677.248 1052.74 677.826 1052.45C678.415 1052.14 679.095 1051.99 679.866 1051.99ZM704.388 1052.06L701.005 1061H699.866L697.044 1053.67L694.222 1061H693.083L689.717 1052.06H690.873L693.678 1059.66L696.551 1052.06H697.588L700.444 1059.66L703.283 1052.06H704.388ZM710.761 1051.99C711.883 1051.99 712.773 1052.32 713.43 1052.98C714.099 1053.62 714.433 1054.57 714.433 1055.81V1061H713.226V1055.93C713.226 1055 712.994 1054.3 712.529 1053.81C712.065 1053.32 711.402 1053.08 710.54 1053.08C709.577 1053.08 708.812 1053.37 708.245 1053.94C707.69 1054.51 707.412 1055.3 707.412 1056.31V1061H706.205V1048.39H707.412V1053.62C707.741 1053.1 708.194 1052.7 708.772 1052.42C709.35 1052.13 710.013 1051.99 710.761 1051.99ZM717.71 1052.06H718.917V1061H717.71V1052.06ZM718.322 1050.1C718.073 1050.1 717.863 1050.02 717.693 1049.85C717.523 1049.68 717.438 1049.47 717.438 1049.24C717.438 1049.01 717.523 1048.81 717.693 1048.64C717.863 1048.47 718.073 1048.39 718.322 1048.39C718.572 1048.39 718.781 1048.47 718.951 1048.64C719.121 1048.8 719.206 1048.99 719.206 1049.22C719.206 1049.47 719.121 1049.68 718.951 1049.85C718.781 1050.02 718.572 1050.1 718.322 1050.1ZM725.982 1061.09C725.098 1061.09 724.304 1060.89 723.602 1060.51C722.91 1060.12 722.366 1059.58 721.97 1058.89C721.573 1058.19 721.375 1057.4 721.375 1056.53C721.375 1055.66 721.573 1054.87 721.97 1054.18C722.366 1053.49 722.91 1052.95 723.602 1052.57C724.304 1052.18 725.098 1051.99 725.982 1051.99C726.752 1051.99 727.438 1052.14 728.039 1052.45C728.651 1052.74 729.132 1053.18 729.484 1053.76L728.583 1054.37C728.288 1053.93 727.914 1053.6 727.461 1053.38C727.007 1053.16 726.514 1053.04 725.982 1053.04C725.336 1053.04 724.752 1053.19 724.231 1053.49C723.721 1053.77 723.318 1054.18 723.024 1054.71C722.74 1055.24 722.599 1055.85 722.599 1056.53C722.599 1057.22 722.74 1057.83 723.024 1058.36C723.318 1058.89 723.721 1059.29 724.231 1059.59C724.752 1059.87 725.336 1060.01 725.982 1060.01C726.514 1060.01 727.007 1059.91 727.461 1059.69C727.914 1059.48 728.288 1059.15 728.583 1058.7L729.484 1059.32C729.132 1059.89 728.651 1060.34 728.039 1060.64C727.427 1060.94 726.741 1061.09 725.982 1061.09ZM736.278 1051.99C737.4 1051.99 738.29 1052.32 738.947 1052.98C739.616 1053.62 739.95 1054.57 739.95 1055.81V1061H738.743V1055.93C738.743 1055 738.511 1054.3 738.046 1053.81C737.581 1053.32 736.918 1053.08 736.057 1053.08C735.094 1053.08 734.329 1053.37 733.762 1053.94C733.207 1054.51 732.929 1055.3 732.929 1056.31V1061H731.722V1048.39H732.929V1053.62C733.258 1053.1 733.711 1052.7 734.289 1052.42C734.867 1052.13 735.53 1051.99 736.278 1051.99ZM491.29 1079.99C492.129 1079.99 492.888 1080.18 493.568 1080.57C494.248 1080.94 494.781 1081.47 495.166 1082.17C495.551 1082.86 495.744 1083.64 495.744 1084.53C495.744 1085.42 495.551 1086.22 495.166 1086.91C494.781 1087.6 494.248 1088.14 493.568 1088.52C492.899 1088.9 492.14 1089.09 491.29 1089.09C490.565 1089.09 489.907 1088.94 489.318 1088.64C488.74 1088.34 488.264 1087.89 487.89 1087.32V1092.3H486.683V1080.06H487.839V1081.83C488.202 1081.24 488.678 1080.78 489.267 1080.47C489.868 1080.15 490.542 1079.99 491.29 1079.99ZM491.205 1088.01C491.828 1088.01 492.395 1087.87 492.905 1087.59C493.415 1087.29 493.812 1086.88 494.095 1086.35C494.39 1085.82 494.537 1085.21 494.537 1084.53C494.537 1083.85 494.39 1083.25 494.095 1082.73C493.812 1082.19 493.415 1081.78 492.905 1081.49C492.395 1081.19 491.828 1081.04 491.205 1081.04C490.57 1081.04 489.998 1081.19 489.488 1081.49C488.989 1081.78 488.593 1082.19 488.298 1082.73C488.015 1083.25 487.873 1083.85 487.873 1084.53C487.873 1085.21 488.015 1085.82 488.298 1086.35C488.593 1086.88 488.989 1087.29 489.488 1087.59C489.998 1087.87 490.57 1088.01 491.205 1088.01ZM501.283 1079.99C502.45 1079.99 503.345 1080.28 503.969 1080.87C504.592 1081.45 504.904 1082.31 504.904 1083.46V1089H503.748V1087.61C503.476 1088.07 503.073 1088.43 502.541 1088.69C502.019 1088.95 501.396 1089.09 500.671 1089.09C499.673 1089.09 498.88 1088.85 498.291 1088.37C497.701 1087.89 497.407 1087.27 497.407 1086.48C497.407 1085.72 497.679 1085.11 498.223 1084.65C498.778 1084.18 499.656 1083.95 500.858 1083.95H503.697V1083.41C503.697 1082.64 503.481 1082.05 503.051 1081.66C502.62 1081.25 501.991 1081.04 501.164 1081.04C500.597 1081.04 500.053 1081.14 499.532 1081.33C499.01 1081.51 498.563 1081.77 498.189 1082.1L497.645 1081.2C498.098 1080.81 498.642 1080.52 499.277 1080.31C499.911 1080.1 500.58 1079.99 501.283 1079.99ZM500.858 1088.13C501.538 1088.13 502.121 1087.98 502.609 1087.67C503.096 1087.36 503.459 1086.9 503.697 1086.31V1084.85H500.892C499.362 1084.85 498.597 1085.38 498.597 1086.45C498.597 1086.97 498.795 1087.38 499.192 1087.69C499.588 1087.99 500.144 1088.13 500.858 1088.13ZM509.338 1081.81C509.621 1081.21 510.041 1080.75 510.596 1080.45C511.163 1080.14 511.86 1079.99 512.687 1079.99V1081.16L512.398 1081.15C511.457 1081.15 510.721 1081.43 510.188 1082.01C509.655 1082.59 509.389 1083.4 509.389 1084.44V1089H508.182V1080.06H509.338V1081.81ZM519.963 1088.46C519.737 1088.66 519.453 1088.82 519.113 1088.93C518.785 1089.03 518.439 1089.09 518.076 1089.09C517.238 1089.09 516.592 1088.86 516.138 1088.4C515.685 1087.95 515.458 1087.31 515.458 1086.48V1081.08H513.86V1080.06H515.458V1078.1H516.665V1080.06H519.385V1081.08H516.665V1086.42C516.665 1086.95 516.796 1087.36 517.056 1087.64C517.328 1087.91 517.714 1088.05 518.212 1088.05C518.462 1088.05 518.7 1088.01 518.926 1087.93C519.164 1087.85 519.368 1087.74 519.538 1087.59L519.963 1088.46ZM522.161 1080.06H523.368V1089H522.161V1080.06ZM522.773 1078.1C522.523 1078.1 522.314 1078.02 522.144 1077.85C521.974 1077.68 521.889 1077.47 521.889 1077.24C521.889 1077.01 521.974 1076.81 522.144 1076.64C522.314 1076.47 522.523 1076.39 522.773 1076.39C523.022 1076.39 523.232 1076.47 523.402 1076.64C523.572 1076.8 523.657 1076.99 523.657 1077.22C523.657 1077.47 523.572 1077.68 523.402 1077.85C523.232 1078.02 523.022 1078.1 522.773 1078.1ZM530.432 1089.09C529.548 1089.09 528.755 1088.89 528.052 1088.51C527.361 1088.12 526.817 1087.58 526.42 1086.89C526.023 1086.19 525.825 1085.4 525.825 1084.53C525.825 1083.66 526.023 1082.87 526.42 1082.18C526.817 1081.49 527.361 1080.95 528.052 1080.57C528.755 1080.18 529.548 1079.99 530.432 1079.99C531.203 1079.99 531.888 1080.14 532.489 1080.45C533.101 1080.74 533.583 1081.18 533.934 1081.76L533.033 1082.37C532.738 1081.93 532.364 1081.6 531.911 1081.38C531.458 1081.16 530.965 1081.04 530.432 1081.04C529.786 1081.04 529.202 1081.19 528.681 1081.49C528.171 1081.77 527.769 1082.18 527.474 1082.71C527.191 1083.24 527.049 1083.85 527.049 1084.53C527.049 1085.22 527.191 1085.83 527.474 1086.36C527.769 1086.89 528.171 1087.29 528.681 1087.59C529.202 1087.87 529.786 1088.01 530.432 1088.01C530.965 1088.01 531.458 1087.91 531.911 1087.69C532.364 1087.48 532.738 1087.15 533.033 1086.7L533.934 1087.32C533.583 1087.89 533.101 1088.34 532.489 1088.64C531.877 1088.94 531.191 1089.09 530.432 1089.09ZM536.305 1080.06H537.512V1089H536.305V1080.06ZM536.917 1078.1C536.668 1078.1 536.458 1078.02 536.288 1077.85C536.118 1077.68 536.033 1077.47 536.033 1077.24C536.033 1077.01 536.118 1076.81 536.288 1076.64C536.458 1076.47 536.668 1076.39 536.917 1076.39C537.166 1076.39 537.376 1076.47 537.546 1076.64C537.716 1076.8 537.801 1076.99 537.801 1077.22C537.801 1077.47 537.716 1077.68 537.546 1077.85C537.376 1078.02 537.166 1078.1 536.917 1078.1ZM545.478 1079.99C546.316 1079.99 547.076 1080.18 547.756 1080.57C548.436 1080.94 548.968 1081.47 549.354 1082.17C549.739 1082.86 549.932 1083.64 549.932 1084.53C549.932 1085.42 549.739 1086.22 549.354 1086.91C548.968 1087.6 548.436 1088.14 547.756 1088.52C547.087 1088.9 546.328 1089.09 545.478 1089.09C544.752 1089.09 544.095 1088.94 543.506 1088.64C542.928 1088.34 542.452 1087.89 542.078 1087.32V1092.3H540.871V1080.06H542.027V1081.83C542.389 1081.24 542.865 1080.78 543.455 1080.47C544.055 1080.15 544.73 1079.99 545.478 1079.99ZM545.393 1088.01C546.016 1088.01 546.583 1087.87 547.093 1087.59C547.603 1087.29 547.999 1086.88 548.283 1086.35C548.577 1085.82 548.725 1085.21 548.725 1084.53C548.725 1083.85 548.577 1083.25 548.283 1082.73C547.999 1082.19 547.603 1081.78 547.093 1081.49C546.583 1081.19 546.016 1081.04 545.393 1081.04C544.758 1081.04 544.186 1081.19 543.675 1081.49C543.177 1081.78 542.78 1082.19 542.486 1082.73C542.202 1083.25 542.061 1083.85 542.061 1084.53C542.061 1085.21 542.202 1085.82 542.486 1086.35C542.78 1086.88 543.177 1087.29 543.675 1087.59C544.186 1087.87 544.758 1088.01 545.393 1088.01ZM555.47 1079.99C556.638 1079.99 557.533 1080.28 558.156 1080.87C558.78 1081.45 559.091 1082.31 559.091 1083.46V1089H557.935V1087.61C557.663 1088.07 557.261 1088.43 556.728 1088.69C556.207 1088.95 555.584 1089.09 554.858 1089.09C553.861 1089.09 553.068 1088.85 552.478 1088.37C551.889 1087.89 551.594 1087.27 551.594 1086.48C551.594 1085.72 551.866 1085.11 552.41 1084.65C552.966 1084.18 553.844 1083.95 555.045 1083.95H557.884V1083.41C557.884 1082.64 557.669 1082.05 557.238 1081.66C556.808 1081.25 556.179 1081.04 555.351 1081.04C554.785 1081.04 554.241 1081.14 553.719 1081.33C553.198 1081.51 552.75 1081.77 552.376 1082.1L551.832 1081.2C552.286 1080.81 552.83 1080.52 553.464 1080.31C554.099 1080.1 554.768 1079.99 555.47 1079.99ZM555.045 1088.13C555.725 1088.13 556.309 1087.98 556.796 1087.67C557.284 1087.36 557.646 1086.9 557.884 1086.31V1084.85H555.079C553.549 1084.85 552.784 1085.38 552.784 1086.45C552.784 1086.97 552.983 1087.38 553.379 1087.69C553.776 1087.99 554.331 1088.13 555.045 1088.13ZM566.926 1079.99C568.048 1079.99 568.937 1080.32 569.595 1080.98C570.263 1081.62 570.598 1082.57 570.598 1083.81V1089H569.391V1083.93C569.391 1083 569.158 1082.3 568.694 1081.81C568.229 1081.32 567.566 1081.08 566.705 1081.08C565.741 1081.08 564.976 1081.37 564.41 1081.94C563.854 1082.51 563.577 1083.3 563.577 1084.31V1089H562.37V1080.06H563.526V1081.71C563.854 1081.16 564.308 1080.74 564.886 1080.45C565.475 1080.14 566.155 1079.99 566.926 1079.99ZM578.583 1088.46C578.357 1088.66 578.073 1088.82 577.733 1088.93C577.405 1089.03 577.059 1089.09 576.696 1089.09C575.858 1089.09 575.212 1088.86 574.758 1088.4C574.305 1087.95 574.078 1087.31 574.078 1086.48V1081.08H572.48V1080.06H574.078V1078.1H575.285V1080.06H578.005V1081.08H575.285V1086.42C575.285 1086.95 575.416 1087.36 575.676 1087.64C575.948 1087.91 576.334 1088.05 576.832 1088.05C577.082 1088.05 577.32 1088.01 577.546 1087.93C577.784 1087.85 577.988 1087.74 578.158 1087.59L578.583 1088.46ZM583.178 1089.09C582.452 1089.09 581.755 1088.98 581.087 1088.78C580.429 1088.56 579.914 1088.3 579.54 1087.98L580.084 1087.03C580.458 1087.32 580.928 1087.57 581.495 1087.76C582.061 1087.94 582.651 1088.03 583.263 1088.03C584.079 1088.03 584.679 1087.91 585.065 1087.66C585.461 1087.4 585.66 1087.03 585.66 1086.57C585.66 1086.24 585.552 1085.99 585.337 1085.8C585.121 1085.61 584.849 1085.47 584.521 1085.38C584.192 1085.28 583.756 1085.18 583.212 1085.09C582.486 1084.95 581.903 1084.82 581.461 1084.68C581.019 1084.53 580.639 1084.29 580.322 1083.95C580.016 1083.61 579.863 1083.14 579.863 1082.54C579.863 1081.79 580.174 1081.18 580.798 1080.7C581.421 1080.23 582.288 1079.99 583.399 1079.99C583.977 1079.99 584.555 1080.07 585.133 1080.23C585.711 1080.38 586.187 1080.57 586.561 1080.82L586.034 1081.79C585.297 1081.28 584.419 1081.03 583.399 1081.03C582.628 1081.03 582.044 1081.16 581.648 1081.43C581.262 1081.71 581.07 1082.06 581.07 1082.51C581.07 1082.85 581.177 1083.12 581.393 1083.32C581.619 1083.53 581.897 1083.68 582.226 1083.78C582.554 1083.87 583.008 1083.97 583.586 1084.07C584.3 1084.21 584.872 1084.34 585.303 1084.48C585.733 1084.61 586.102 1084.85 586.408 1085.17C586.714 1085.5 586.867 1085.96 586.867 1086.53C586.867 1087.32 586.538 1087.94 585.881 1088.4C585.235 1088.86 584.334 1089.09 583.178 1089.09ZM601.333 1084.9H593.853C593.921 1085.83 594.278 1086.59 594.924 1087.16C595.57 1087.73 596.386 1088.01 597.372 1088.01C597.928 1088.01 598.438 1087.92 598.902 1087.72C599.367 1087.52 599.769 1087.23 600.109 1086.84L600.789 1087.62C600.393 1088.1 599.894 1088.46 599.293 1088.71C598.704 1088.96 598.052 1089.09 597.338 1089.09C596.42 1089.09 595.604 1088.89 594.89 1088.51C594.188 1088.11 593.638 1087.57 593.241 1086.88C592.845 1086.18 592.646 1085.4 592.646 1084.53C592.646 1083.66 592.833 1082.87 593.207 1082.18C593.593 1081.49 594.114 1080.95 594.771 1080.57C595.44 1080.18 596.188 1079.99 597.015 1079.99C597.843 1079.99 598.585 1080.18 599.242 1080.57C599.9 1080.95 600.415 1081.49 600.789 1082.18C601.163 1082.86 601.35 1083.64 601.35 1084.53L601.333 1084.9ZM597.015 1081.03C596.154 1081.03 595.429 1081.3 594.839 1081.86C594.261 1082.4 593.933 1083.12 593.853 1084H600.194C600.115 1083.12 599.781 1082.4 599.191 1081.86C598.613 1081.3 597.888 1081.03 597.015 1081.03ZM606.686 1079.99C607.853 1079.99 608.749 1080.28 609.372 1080.87C609.995 1081.45 610.307 1082.31 610.307 1083.46V1089H609.151V1087.61C608.879 1088.07 608.477 1088.43 607.944 1088.69C607.423 1088.95 606.799 1089.09 606.074 1089.09C605.077 1089.09 604.283 1088.85 603.694 1088.37C603.105 1087.89 602.81 1087.27 602.81 1086.48C602.81 1085.72 603.082 1085.11 603.626 1084.65C604.181 1084.18 605.06 1083.95 606.261 1083.95H609.1V1083.41C609.1 1082.64 608.885 1082.05 608.454 1081.66C608.023 1081.25 607.394 1081.04 606.567 1081.04C606 1081.04 605.456 1081.14 604.935 1081.33C604.414 1081.51 603.966 1081.77 603.592 1082.1L603.048 1081.2C603.501 1080.81 604.045 1080.52 604.68 1080.31C605.315 1080.1 605.983 1079.99 606.686 1079.99ZM606.261 1088.13C606.941 1088.13 607.525 1087.98 608.012 1087.67C608.499 1087.36 608.862 1086.9 609.1 1086.31V1084.85H606.295C604.765 1084.85 604 1085.38 604 1086.45C604 1086.97 604.198 1087.38 604.595 1087.69C604.992 1087.99 605.547 1088.13 606.261 1088.13ZM614.741 1081.81C615.025 1081.21 615.444 1080.75 615.999 1080.45C616.566 1080.14 617.263 1079.99 618.09 1079.99V1081.16L617.801 1081.15C616.861 1081.15 616.124 1081.43 615.591 1082.01C615.059 1082.59 614.792 1083.4 614.792 1084.44V1089H613.585V1080.06H614.741V1081.81ZM624.832 1079.99C625.954 1079.99 626.843 1080.32 627.501 1080.98C628.169 1081.62 628.504 1082.57 628.504 1083.81V1089H627.297V1083.93C627.297 1083 627.064 1082.3 626.6 1081.81C626.135 1081.32 625.472 1081.08 624.611 1081.08C623.647 1081.08 622.882 1081.37 622.316 1081.94C621.76 1082.51 621.483 1083.3 621.483 1084.31V1089H620.276V1080.06H621.432V1081.71C621.76 1081.16 622.214 1080.74 622.792 1080.45C623.381 1080.14 624.061 1079.99 624.832 1079.99ZM647.382 1079.99C648.504 1079.99 649.382 1080.31 650.017 1080.96C650.663 1081.6 650.986 1082.56 650.986 1083.81V1089H649.779V1083.93C649.779 1083 649.552 1082.3 649.099 1081.81C648.657 1081.32 648.028 1081.08 647.212 1081.08C646.283 1081.08 645.552 1081.37 645.019 1081.94C644.486 1082.51 644.22 1083.3 644.22 1084.31V1089H643.013V1083.93C643.013 1083 642.786 1082.3 642.333 1081.81C641.891 1081.32 641.256 1081.08 640.429 1081.08C639.511 1081.08 638.78 1081.37 638.236 1081.94C637.703 1082.51 637.437 1083.3 637.437 1084.31V1089H636.23V1080.06H637.386V1081.69C637.703 1081.15 638.145 1080.73 638.712 1080.43C639.279 1080.14 639.93 1079.99 640.667 1079.99C641.415 1079.99 642.061 1080.15 642.605 1080.47C643.16 1080.78 643.574 1081.25 643.846 1081.88C644.175 1081.29 644.645 1080.83 645.257 1080.5C645.88 1080.16 646.589 1079.99 647.382 1079.99ZM657.947 1089.09C657.086 1089.09 656.31 1088.89 655.618 1088.51C654.927 1088.11 654.383 1087.57 653.986 1086.88C653.59 1086.18 653.391 1085.4 653.391 1084.53C653.391 1083.66 653.59 1082.87 653.986 1082.18C654.383 1081.49 654.927 1080.95 655.618 1080.57C656.31 1080.18 657.086 1079.99 657.947 1079.99C658.809 1079.99 659.585 1080.18 660.276 1080.57C660.968 1080.95 661.506 1081.49 661.891 1082.18C662.288 1082.87 662.486 1083.66 662.486 1084.53C662.486 1085.4 662.288 1086.18 661.891 1086.88C661.506 1087.57 660.968 1088.11 660.276 1088.51C659.585 1088.89 658.809 1089.09 657.947 1089.09ZM657.947 1088.01C658.582 1088.01 659.149 1087.87 659.647 1087.59C660.157 1087.29 660.554 1086.88 660.837 1086.35C661.121 1085.82 661.262 1085.21 661.262 1084.53C661.262 1083.85 661.121 1083.24 660.837 1082.71C660.554 1082.18 660.157 1081.77 659.647 1081.49C659.149 1081.19 658.582 1081.04 657.947 1081.04C657.313 1081.04 656.74 1081.19 656.23 1081.49C655.732 1081.77 655.335 1082.18 655.04 1082.71C654.757 1083.24 654.615 1083.85 654.615 1084.53C654.615 1085.21 654.757 1085.82 655.04 1086.35C655.335 1086.88 655.732 1087.29 656.23 1087.59C656.74 1087.87 657.313 1088.01 657.947 1088.01ZM669.507 1079.99C670.629 1079.99 671.518 1080.32 672.176 1080.98C672.844 1081.62 673.179 1082.57 673.179 1083.81V1089H671.972V1083.93C671.972 1083 671.739 1082.3 671.275 1081.81C670.81 1081.32 670.147 1081.08 669.286 1081.08C668.322 1081.08 667.557 1081.37 666.991 1081.94C666.435 1082.51 666.158 1083.3 666.158 1084.31V1089H664.951V1080.06H666.107V1081.71C666.435 1081.16 666.889 1080.74 667.467 1080.45C668.056 1080.14 668.736 1079.99 669.507 1079.99ZM684.275 1084.9H676.795C676.863 1085.83 677.22 1086.59 677.866 1087.16C678.512 1087.73 679.328 1088.01 680.314 1088.01C680.869 1088.01 681.379 1087.92 681.844 1087.72C682.308 1087.52 682.711 1087.23 683.051 1086.84L683.731 1087.62C683.334 1088.1 682.835 1088.46 682.235 1088.71C681.645 1088.96 680.994 1089.09 680.28 1089.09C679.362 1089.09 678.546 1088.89 677.832 1088.51C677.129 1088.11 676.579 1087.57 676.183 1086.88C675.786 1086.18 675.588 1085.4 675.588 1084.53C675.588 1083.66 675.775 1082.87 676.149 1082.18C676.534 1081.49 677.055 1080.95 677.713 1080.57C678.381 1080.18 679.129 1079.99 679.957 1079.99C680.784 1079.99 681.526 1080.18 682.184 1080.57C682.841 1080.95 683.357 1081.49 683.731 1082.18C684.105 1082.86 684.292 1083.64 684.292 1084.53L684.275 1084.9ZM679.957 1081.03C679.095 1081.03 678.37 1081.3 677.781 1081.86C677.203 1082.4 676.874 1083.12 676.795 1084H683.136C683.056 1083.12 682.722 1082.4 682.133 1081.86C681.555 1081.3 680.829 1081.03 679.957 1081.03ZM694.096 1080.06L689.625 1090.07C689.263 1090.91 688.843 1091.5 688.367 1091.86C687.891 1092.21 687.319 1092.38 686.65 1092.38C686.22 1092.38 685.817 1092.32 685.443 1092.18C685.069 1092.04 684.746 1091.84 684.474 1091.57L685.035 1090.67C685.489 1091.12 686.033 1091.35 686.667 1091.35C687.075 1091.35 687.421 1091.23 687.704 1091.01C687.999 1090.78 688.271 1090.39 688.52 1089.85L688.911 1088.98L684.916 1080.06H686.174L689.54 1087.66L692.906 1080.06H694.096ZM704.853 1079.99C705.691 1079.99 706.451 1080.18 707.131 1080.57C707.811 1080.94 708.343 1081.47 708.729 1082.17C709.114 1082.86 709.307 1083.64 709.307 1084.53C709.307 1085.41 709.114 1086.2 708.729 1086.89C708.343 1087.58 707.811 1088.12 707.131 1088.51C706.451 1088.89 705.691 1089.09 704.853 1089.09C704.105 1089.09 703.43 1088.93 702.83 1088.61C702.24 1088.29 701.764 1087.83 701.402 1087.23V1089H700.246V1076.39H701.453V1081.76C701.827 1081.18 702.303 1080.74 702.881 1080.45C703.47 1080.14 704.127 1079.99 704.853 1079.99ZM704.768 1088.01C705.391 1088.01 705.958 1087.87 706.468 1087.59C706.978 1087.29 707.374 1086.88 707.658 1086.35C707.952 1085.82 708.1 1085.21 708.1 1084.53C708.1 1083.85 707.952 1083.24 707.658 1082.71C707.374 1082.18 706.978 1081.77 706.468 1081.49C705.958 1081.19 705.391 1081.04 704.768 1081.04C704.133 1081.04 703.561 1081.19 703.05 1081.49C702.552 1081.77 702.155 1082.18 701.861 1082.71C701.577 1083.24 701.436 1083.85 701.436 1084.53C701.436 1085.21 701.577 1085.82 701.861 1086.35C702.155 1086.88 702.552 1087.29 703.05 1087.59C703.561 1087.87 704.133 1088.01 704.768 1088.01ZM719.032 1080.06L714.561 1090.07C714.198 1090.91 713.779 1091.5 713.303 1091.86C712.827 1092.21 712.255 1092.38 711.586 1092.38C711.155 1092.38 710.753 1092.32 710.379 1092.18C710.005 1092.04 709.682 1091.84 709.41 1091.57L709.971 1090.67C710.424 1091.12 710.968 1091.35 711.603 1091.35C712.011 1091.35 712.357 1091.23 712.64 1091.01C712.935 1090.78 713.207 1090.39 713.456 1089.85L713.847 1088.98L709.852 1080.06H711.11L714.476 1087.66L717.842 1080.06H719.032ZM729.788 1079.99C730.627 1079.99 731.386 1080.18 732.066 1080.57C732.746 1080.94 733.279 1081.47 733.664 1082.17C734.049 1082.86 734.242 1083.64 734.242 1084.53C734.242 1085.42 734.049 1086.22 733.664 1086.91C733.279 1087.6 732.746 1088.14 732.066 1088.52C731.397 1088.9 730.638 1089.09 729.788 1089.09C729.063 1089.09 728.405 1088.94 727.816 1088.64C727.238 1088.34 726.762 1087.89 726.388 1087.32V1092.3H725.181V1080.06H726.337V1081.83C726.7 1081.24 727.176 1080.78 727.765 1080.47C728.366 1080.15 729.04 1079.99 729.788 1079.99ZM729.703 1088.01C730.326 1088.01 730.893 1087.87 731.403 1087.59C731.913 1087.29 732.31 1086.88 732.593 1086.35C732.888 1085.82 733.035 1085.21 733.035 1084.53C733.035 1083.85 732.888 1083.25 732.593 1082.73C732.31 1082.19 731.913 1081.78 731.403 1081.49C730.893 1081.19 730.326 1081.04 729.703 1081.04C729.068 1081.04 728.496 1081.19 727.986 1081.49C727.487 1081.78 727.091 1082.19 726.796 1082.73C726.513 1083.25 726.371 1083.85 726.371 1084.53C726.371 1085.21 726.513 1085.82 726.796 1086.35C727.091 1086.88 727.487 1087.29 727.986 1087.59C728.496 1087.87 729.068 1088.01 729.703 1088.01ZM736.703 1076.39H737.91V1089H736.703V1076.39ZM744.396 1079.99C745.563 1079.99 746.459 1080.28 747.082 1080.87C747.705 1081.45 748.017 1082.31 748.017 1083.46V1089H746.861V1087.61C746.589 1088.07 746.187 1088.43 745.654 1088.69C745.133 1088.95 744.509 1089.09 743.784 1089.09C742.787 1089.09 741.993 1088.85 741.404 1088.37C740.815 1087.89 740.52 1087.27 740.52 1086.48C740.52 1085.72 740.792 1085.11 741.336 1084.65C741.891 1084.18 742.77 1083.95 743.971 1083.95H746.81V1083.41C746.81 1082.64 746.595 1082.05 746.164 1081.66C745.733 1081.25 745.104 1081.04 744.277 1081.04C743.71 1081.04 743.166 1081.14 742.645 1081.33C742.124 1081.51 741.676 1081.77 741.302 1082.1L740.758 1081.2C741.211 1080.81 741.755 1080.52 742.39 1080.31C743.025 1080.1 743.693 1079.99 744.396 1079.99ZM743.971 1088.13C744.651 1088.13 745.235 1087.98 745.722 1087.67C746.209 1087.36 746.572 1086.9 746.81 1086.31V1084.85H744.005C742.475 1084.85 741.71 1085.38 741.71 1086.45C741.71 1086.97 741.908 1087.38 742.305 1087.69C742.702 1087.99 743.257 1088.13 743.971 1088.13ZM758.643 1080.06L754.172 1090.07C753.81 1090.91 753.39 1091.5 752.914 1091.86C752.438 1092.21 751.866 1092.38 751.197 1092.38C750.767 1092.38 750.364 1092.32 749.99 1092.18C749.616 1092.04 749.293 1091.84 749.021 1091.57L749.582 1090.67C750.036 1091.12 750.58 1091.35 751.214 1091.35C751.622 1091.35 751.968 1091.23 752.251 1091.01C752.546 1090.78 752.818 1090.39 753.067 1089.85L753.458 1088.98L749.463 1080.06H750.721L754.087 1087.66L757.453 1080.06H758.643ZM760.343 1080.06H761.55V1089H760.343V1080.06ZM760.955 1078.1C760.706 1078.1 760.496 1078.02 760.326 1077.85C760.156 1077.68 760.071 1077.47 760.071 1077.24C760.071 1077.01 760.156 1076.81 760.326 1076.64C760.496 1076.47 760.706 1076.39 760.955 1076.39C761.204 1076.39 761.414 1076.47 761.584 1076.64C761.754 1076.8 761.839 1076.99 761.839 1077.22C761.839 1077.47 761.754 1077.68 761.584 1077.85C761.414 1078.02 761.204 1078.1 760.955 1078.1ZM769.465 1079.99C770.587 1079.99 771.476 1080.32 772.134 1080.98C772.802 1081.62 773.137 1082.57 773.137 1083.81V1089H771.93V1083.93C771.93 1083 771.697 1082.3 771.233 1081.81C770.768 1081.32 770.105 1081.08 769.244 1081.08C768.28 1081.08 767.515 1081.37 766.949 1081.94C766.393 1082.51 766.116 1083.3 766.116 1084.31V1089H764.909V1080.06H766.065V1081.71C766.393 1081.16 766.847 1080.74 767.425 1080.45C768.014 1080.14 768.694 1079.99 769.465 1079.99ZM784.726 1080.06V1087.91C784.726 1089.43 784.352 1090.55 783.604 1091.28C782.867 1092.01 781.751 1092.38 780.255 1092.38C779.427 1092.38 778.64 1092.26 777.892 1092.01C777.155 1091.77 776.554 1091.44 776.09 1091.01L776.702 1090.09C777.132 1090.47 777.654 1090.77 778.266 1090.99C778.889 1091.2 779.541 1091.31 780.221 1091.31C781.354 1091.31 782.187 1091.05 782.72 1090.51C783.252 1089.99 783.519 1089.18 783.519 1088.06V1086.93C783.145 1087.49 782.652 1087.92 782.04 1088.22C781.439 1088.51 780.77 1088.66 780.034 1088.66C779.195 1088.66 778.43 1088.48 777.739 1088.12C777.059 1087.74 776.52 1087.23 776.124 1086.57C775.738 1085.9 775.546 1085.15 775.546 1084.31C775.546 1083.47 775.738 1082.72 776.124 1082.06C776.52 1081.41 777.059 1080.9 777.739 1080.53C778.419 1080.17 779.184 1079.99 780.034 1079.99C780.793 1079.99 781.479 1080.14 782.091 1080.45C782.703 1080.75 783.196 1081.2 783.57 1081.77V1080.06H784.726ZM780.153 1087.59C780.799 1087.59 781.382 1087.45 781.904 1087.18C782.425 1086.9 782.827 1086.51 783.111 1086.01C783.405 1085.51 783.553 1084.94 783.553 1084.31C783.553 1083.67 783.405 1083.11 783.111 1082.62C782.827 1082.13 782.425 1081.74 781.904 1081.47C781.394 1081.19 780.81 1081.04 780.153 1081.04C779.507 1081.04 778.923 1081.18 778.402 1081.45C777.892 1081.72 777.489 1082.11 777.195 1082.61C776.911 1083.11 776.77 1083.67 776.77 1084.31C776.77 1084.94 776.911 1085.51 777.195 1086.01C777.489 1086.51 777.892 1086.9 778.402 1087.18C778.923 1087.45 779.507 1087.59 780.153 1087.59ZM489.811 1107.99C490.978 1107.99 491.874 1108.28 492.497 1108.87C493.12 1109.45 493.432 1110.31 493.432 1111.46V1117H492.276V1115.61C492.004 1116.07 491.602 1116.43 491.069 1116.69C490.548 1116.95 489.924 1117.09 489.199 1117.09C488.202 1117.09 487.408 1116.85 486.819 1116.37C486.23 1115.89 485.935 1115.27 485.935 1114.48C485.935 1113.72 486.207 1113.11 486.751 1112.65C487.306 1112.18 488.185 1111.95 489.386 1111.95H492.225V1111.41C492.225 1110.64 492.01 1110.05 491.579 1109.66C491.148 1109.25 490.519 1109.04 489.692 1109.04C489.125 1109.04 488.581 1109.14 488.06 1109.33C487.539 1109.51 487.091 1109.77 486.717 1110.1L486.173 1109.2C486.626 1108.81 487.17 1108.52 487.805 1108.31C488.44 1108.1 489.108 1107.99 489.811 1107.99ZM489.386 1116.13C490.066 1116.13 490.65 1115.98 491.137 1115.67C491.624 1115.36 491.987 1114.9 492.225 1114.31V1112.85H489.42C487.89 1112.85 487.125 1113.38 487.125 1114.45C487.125 1114.97 487.323 1115.38 487.72 1115.69C488.117 1115.99 488.672 1116.13 489.386 1116.13ZM505.023 1108.06V1115.91C505.023 1117.43 504.649 1118.55 503.901 1119.28C503.164 1120.01 502.048 1120.38 500.552 1120.38C499.724 1120.38 498.937 1120.26 498.189 1120.01C497.452 1119.77 496.851 1119.44 496.387 1119.01L496.999 1118.09C497.429 1118.47 497.951 1118.77 498.563 1118.99C499.186 1119.2 499.838 1119.31 500.518 1119.31C501.651 1119.31 502.484 1119.05 503.017 1118.51C503.549 1117.99 503.816 1117.18 503.816 1116.06V1114.93C503.442 1115.49 502.949 1115.92 502.337 1116.22C501.736 1116.51 501.067 1116.66 500.331 1116.66C499.492 1116.66 498.727 1116.48 498.036 1116.12C497.356 1115.74 496.817 1115.23 496.421 1114.57C496.035 1113.9 495.843 1113.15 495.843 1112.31C495.843 1111.47 496.035 1110.72 496.421 1110.06C496.817 1109.41 497.356 1108.9 498.036 1108.53C498.716 1108.17 499.481 1107.99 500.331 1107.99C501.09 1107.99 501.776 1108.14 502.388 1108.45C503 1108.75 503.493 1109.2 503.867 1109.77V1108.06H505.023ZM500.45 1115.59C501.096 1115.59 501.679 1115.45 502.201 1115.18C502.722 1114.9 503.124 1114.51 503.408 1114.01C503.702 1113.51 503.85 1112.94 503.85 1112.31C503.85 1111.67 503.702 1111.11 503.408 1110.62C503.124 1110.13 502.722 1109.74 502.201 1109.47C501.691 1109.19 501.107 1109.04 500.45 1109.04C499.804 1109.04 499.22 1109.18 498.699 1109.45C498.189 1109.72 497.786 1110.11 497.492 1110.61C497.208 1111.11 497.067 1111.67 497.067 1112.31C497.067 1112.94 497.208 1113.51 497.492 1114.01C497.786 1114.51 498.189 1114.9 498.699 1115.18C499.22 1115.45 499.804 1115.59 500.45 1115.59ZM511.526 1107.99C512.693 1107.99 513.589 1108.28 514.212 1108.87C514.835 1109.45 515.147 1110.31 515.147 1111.46V1117H513.991V1115.61C513.719 1116.07 513.317 1116.43 512.784 1116.69C512.263 1116.95 511.639 1117.09 510.914 1117.09C509.917 1117.09 509.123 1116.85 508.534 1116.37C507.945 1115.89 507.65 1115.27 507.65 1114.48C507.65 1113.72 507.922 1113.11 508.466 1112.65C509.021 1112.18 509.9 1111.95 511.101 1111.95H513.94V1111.41C513.94 1110.64 513.725 1110.05 513.294 1109.66C512.863 1109.25 512.234 1109.04 511.407 1109.04C510.84 1109.04 510.296 1109.14 509.775 1109.33C509.254 1109.51 508.806 1109.77 508.432 1110.1L507.888 1109.2C508.341 1108.81 508.885 1108.52 509.52 1108.31C510.155 1108.1 510.823 1107.99 511.526 1107.99ZM511.101 1116.13C511.781 1116.13 512.365 1115.98 512.852 1115.67C513.339 1115.36 513.702 1114.9 513.94 1114.31V1112.85H511.135C509.605 1112.85 508.84 1113.38 508.84 1114.45C508.84 1114.97 509.038 1115.38 509.435 1115.69C509.832 1115.99 510.387 1116.13 511.101 1116.13ZM518.425 1108.06H519.632V1117H518.425V1108.06ZM519.037 1106.1C518.788 1106.1 518.578 1106.02 518.408 1105.85C518.238 1105.68 518.153 1105.47 518.153 1105.24C518.153 1105.01 518.238 1104.81 518.408 1104.64C518.578 1104.47 518.788 1104.39 519.037 1104.39C519.287 1104.39 519.496 1104.47 519.666 1104.64C519.836 1104.8 519.921 1104.99 519.921 1105.22C519.921 1105.47 519.836 1105.68 519.666 1105.85C519.496 1106.02 519.287 1106.1 519.037 1106.1ZM527.547 1107.99C528.669 1107.99 529.558 1108.32 530.216 1108.98C530.884 1109.62 531.219 1110.57 531.219 1111.81V1117H530.012V1111.93C530.012 1111 529.779 1110.3 529.315 1109.81C528.85 1109.32 528.187 1109.08 527.326 1109.08C526.362 1109.08 525.597 1109.37 525.031 1109.94C524.475 1110.51 524.198 1111.3 524.198 1112.31V1117H522.991V1108.06H524.147V1109.71C524.475 1109.16 524.929 1108.74 525.507 1108.45C526.096 1108.14 526.776 1107.99 527.547 1107.99ZM536.893 1117.09C536.167 1117.09 535.47 1116.98 534.802 1116.78C534.144 1116.56 533.629 1116.3 533.255 1115.98L533.799 1115.03C534.173 1115.32 534.643 1115.57 535.21 1115.76C535.776 1115.94 536.366 1116.03 536.978 1116.03C537.794 1116.03 538.394 1115.91 538.78 1115.66C539.176 1115.4 539.375 1115.03 539.375 1114.57C539.375 1114.24 539.267 1113.99 539.052 1113.8C538.836 1113.61 538.564 1113.47 538.236 1113.38C537.907 1113.28 537.471 1113.18 536.927 1113.09C536.201 1112.95 535.618 1112.82 535.176 1112.68C534.734 1112.53 534.354 1112.29 534.037 1111.95C533.731 1111.61 533.578 1111.14 533.578 1110.54C533.578 1109.79 533.889 1109.18 534.513 1108.7C535.136 1108.23 536.003 1107.99 537.114 1107.99C537.692 1107.99 538.27 1108.07 538.848 1108.23C539.426 1108.38 539.902 1108.57 540.276 1108.82L539.749 1109.79C539.012 1109.28 538.134 1109.03 537.114 1109.03C536.343 1109.03 535.759 1109.16 535.363 1109.43C534.977 1109.71 534.785 1110.06 534.785 1110.51C534.785 1110.85 534.892 1111.12 535.108 1111.32C535.334 1111.53 535.612 1111.68 535.941 1111.78C536.269 1111.87 536.723 1111.97 537.3 1112.07C538.015 1112.21 538.587 1112.34 539.018 1112.48C539.448 1112.61 539.817 1112.85 540.123 1113.17C540.429 1113.5 540.582 1113.96 540.582 1114.53C540.582 1115.32 540.253 1115.94 539.596 1116.4C538.95 1116.86 538.049 1117.09 536.893 1117.09ZM547.522 1116.46C547.295 1116.66 547.012 1116.82 546.672 1116.93C546.343 1117.03 545.998 1117.09 545.635 1117.09C544.796 1117.09 544.15 1116.86 543.697 1116.4C543.244 1115.95 543.017 1115.31 543.017 1114.48V1109.08H541.419V1108.06H543.017V1106.1H544.224V1108.06H546.944V1109.08H544.224V1114.42C544.224 1114.95 544.354 1115.36 544.615 1115.64C544.887 1115.91 545.272 1116.05 545.771 1116.05C546.02 1116.05 546.258 1116.01 546.485 1115.93C546.723 1115.85 546.927 1115.74 547.097 1115.59L547.522 1116.46ZM557.823 1117.09C556.962 1117.09 556.186 1116.89 555.494 1116.51C554.803 1116.11 554.259 1115.57 553.862 1114.88C553.466 1114.18 553.267 1113.4 553.267 1112.53C553.267 1111.66 553.466 1110.87 553.862 1110.18C554.259 1109.49 554.803 1108.95 555.494 1108.57C556.186 1108.18 556.962 1107.99 557.823 1107.99C558.685 1107.99 559.461 1108.18 560.152 1108.57C560.844 1108.95 561.382 1109.49 561.767 1110.18C562.164 1110.87 562.362 1111.66 562.362 1112.53C562.362 1113.4 562.164 1114.18 561.767 1114.88C561.382 1115.57 560.844 1116.11 560.152 1116.51C559.461 1116.89 558.685 1117.09 557.823 1117.09ZM557.823 1116.01C558.458 1116.01 559.025 1115.87 559.523 1115.59C560.033 1115.29 560.43 1114.88 560.713 1114.35C560.997 1113.82 561.138 1113.21 561.138 1112.53C561.138 1111.85 560.997 1111.24 560.713 1110.71C560.43 1110.18 560.033 1109.77 559.523 1109.49C559.025 1109.19 558.458 1109.04 557.823 1109.04C557.189 1109.04 556.616 1109.19 556.106 1109.49C555.608 1109.77 555.211 1110.18 554.916 1110.71C554.633 1111.24 554.491 1111.85 554.491 1112.53C554.491 1113.21 554.633 1113.82 554.916 1114.35C555.211 1114.88 555.608 1115.29 556.106 1115.59C556.616 1115.87 557.189 1116.01 557.823 1116.01ZM569.536 1116.46C569.309 1116.66 569.026 1116.82 568.686 1116.93C568.357 1117.03 568.011 1117.09 567.649 1117.09C566.81 1117.09 566.164 1116.86 565.711 1116.4C565.257 1115.95 565.031 1115.31 565.031 1114.48V1109.08H563.433V1108.06H565.031V1106.1H566.238V1108.06H568.958V1109.08H566.238V1114.42C566.238 1114.95 566.368 1115.36 566.629 1115.64C566.901 1115.91 567.286 1116.05 567.785 1116.05C568.034 1116.05 568.272 1116.01 568.499 1115.93C568.737 1115.85 568.941 1115.74 569.111 1115.59L569.536 1116.46ZM576.289 1107.99C577.411 1107.99 578.3 1108.32 578.958 1108.98C579.626 1109.62 579.961 1110.57 579.961 1111.81V1117H578.754V1111.93C578.754 1111 578.521 1110.3 578.057 1109.81C577.592 1109.32 576.929 1109.08 576.068 1109.08C575.104 1109.08 574.339 1109.37 573.773 1109.94C573.217 1110.51 572.94 1111.3 572.94 1112.31V1117H571.733V1104.39H572.94V1109.62C573.268 1109.1 573.722 1108.7 574.3 1108.42C574.878 1108.13 575.541 1107.99 576.289 1107.99ZM591.057 1112.9H583.577C583.645 1113.83 584.002 1114.59 584.648 1115.16C585.294 1115.73 586.11 1116.01 587.096 1116.01C587.651 1116.01 588.161 1115.92 588.626 1115.72C589.091 1115.52 589.493 1115.23 589.833 1114.84L590.513 1115.62C590.116 1116.1 589.618 1116.46 589.017 1116.71C588.428 1116.96 587.776 1117.09 587.062 1117.09C586.144 1117.09 585.328 1116.89 584.614 1116.51C583.911 1116.11 583.362 1115.57 582.965 1114.88C582.568 1114.18 582.37 1113.4 582.37 1112.53C582.37 1111.66 582.557 1110.87 582.931 1110.18C583.316 1109.49 583.838 1108.95 584.495 1108.57C585.164 1108.18 585.912 1107.99 586.739 1107.99C587.566 1107.99 588.309 1108.18 588.966 1108.57C589.623 1108.95 590.139 1109.49 590.513 1110.18C590.887 1110.86 591.074 1111.64 591.074 1112.53L591.057 1112.9ZM586.739 1109.03C585.878 1109.03 585.152 1109.3 584.563 1109.86C583.985 1110.4 583.656 1111.12 583.577 1112H589.918C589.839 1111.12 589.504 1110.4 588.915 1109.86C588.337 1109.3 587.612 1109.03 586.739 1109.03ZM594.687 1109.81C594.97 1109.21 595.389 1108.75 595.945 1108.45C596.511 1108.14 597.208 1107.99 598.036 1107.99V1109.16L597.747 1109.15C596.806 1109.15 596.069 1109.43 595.537 1110.01C595.004 1110.59 594.738 1111.4 594.738 1112.44V1117H593.531V1108.06H594.687V1109.81ZM607.761 1105.32C607.24 1105.32 606.843 1105.46 606.571 1105.75C606.31 1106.03 606.18 1106.45 606.18 1107V1108.06H608.934V1109.08H606.214V1117H605.007V1109.08H603.409V1108.06H605.007V1106.95C605.007 1106.14 605.239 1105.49 605.704 1105.01C606.18 1104.54 606.849 1104.3 607.71 1104.3C608.05 1104.3 608.379 1104.35 608.696 1104.45C609.013 1104.54 609.28 1104.68 609.495 1104.86L609.087 1105.76C608.736 1105.47 608.294 1105.32 607.761 1105.32ZM613.526 1107.99C614.693 1107.99 615.589 1108.28 616.212 1108.87C616.835 1109.45 617.147 1110.31 617.147 1111.46V1117H615.991V1115.61C615.719 1116.07 615.317 1116.43 614.784 1116.69C614.263 1116.95 613.639 1117.09 612.914 1117.09C611.917 1117.09 611.123 1116.85 610.534 1116.37C609.945 1115.89 609.65 1115.27 609.65 1114.48C609.65 1113.72 609.922 1113.11 610.466 1112.65C611.021 1112.18 611.9 1111.95 613.101 1111.95H615.94V1111.41C615.94 1110.64 615.725 1110.05 615.294 1109.66C614.863 1109.25 614.234 1109.04 613.407 1109.04C612.84 1109.04 612.296 1109.14 611.775 1109.33C611.254 1109.51 610.806 1109.77 610.432 1110.1L609.888 1109.2C610.341 1108.81 610.885 1108.52 611.52 1108.31C612.155 1108.1 612.823 1107.99 613.526 1107.99ZM613.101 1116.13C613.781 1116.13 614.365 1115.98 614.852 1115.67C615.339 1115.36 615.702 1114.9 615.94 1114.31V1112.85H613.135C611.605 1112.85 610.84 1113.38 610.84 1114.45C610.84 1114.97 611.038 1115.38 611.435 1115.69C611.832 1115.99 612.387 1116.13 613.101 1116.13ZM631.577 1107.99C632.699 1107.99 633.578 1108.31 634.212 1108.96C634.858 1109.6 635.181 1110.56 635.181 1111.81V1117H633.974V1111.93C633.974 1111 633.748 1110.3 633.294 1109.81C632.852 1109.32 632.223 1109.08 631.407 1109.08C630.478 1109.08 629.747 1109.37 629.214 1109.94C628.682 1110.51 628.415 1111.3 628.415 1112.31V1117H627.208V1111.93C627.208 1111 626.982 1110.3 626.528 1109.81C626.086 1109.32 625.452 1109.08 624.624 1109.08C623.706 1109.08 622.975 1109.37 622.431 1109.94C621.899 1110.51 621.632 1111.3 621.632 1112.31V1117H620.425V1108.06H621.581V1109.69C621.899 1109.15 622.341 1108.73 622.907 1108.43C623.474 1108.14 624.126 1107.99 624.862 1107.99C625.61 1107.99 626.256 1108.15 626.8 1108.47C627.356 1108.78 627.769 1109.25 628.041 1109.88C628.37 1109.29 628.84 1108.83 629.452 1108.5C630.076 1108.16 630.784 1107.99 631.577 1107.99ZM638.454 1108.06H639.661V1117H638.454V1108.06ZM639.066 1106.1C638.817 1106.1 638.607 1106.02 638.437 1105.85C638.267 1105.68 638.182 1105.47 638.182 1105.24C638.182 1105.01 638.267 1104.81 638.437 1104.64C638.607 1104.47 638.817 1104.39 639.066 1104.39C639.316 1104.39 639.525 1104.47 639.695 1104.64C639.865 1104.8 639.95 1104.99 639.95 1105.22C639.95 1105.47 639.865 1105.68 639.695 1105.85C639.525 1106.02 639.316 1106.1 639.066 1106.1ZM643.02 1104.39H644.227V1117H643.02V1104.39ZM647.585 1108.06H648.792V1117H647.585V1108.06ZM648.197 1106.1C647.948 1106.1 647.738 1106.02 647.568 1105.85C647.398 1105.68 647.313 1105.47 647.313 1105.24C647.313 1105.01 647.398 1104.81 647.568 1104.64C647.738 1104.47 647.948 1104.39 648.197 1104.39C648.447 1104.39 648.656 1104.47 648.826 1104.64C648.996 1104.8 649.081 1104.99 649.081 1105.22C649.081 1105.47 648.996 1105.68 648.826 1105.85C648.656 1106.02 648.447 1106.1 648.197 1106.1ZM659.937 1112.9H652.457C652.525 1113.83 652.882 1114.59 653.528 1115.16C654.174 1115.73 654.99 1116.01 655.976 1116.01C656.531 1116.01 657.041 1115.92 657.506 1115.72C657.97 1115.52 658.373 1115.23 658.713 1114.84L659.393 1115.62C658.996 1116.1 658.497 1116.46 657.897 1116.71C657.307 1116.96 656.656 1117.09 655.942 1117.09C655.024 1117.09 654.208 1116.89 653.494 1116.51C652.791 1116.11 652.241 1115.57 651.845 1114.88C651.448 1114.18 651.25 1113.4 651.25 1112.53C651.25 1111.66 651.437 1110.87 651.811 1110.18C652.196 1109.49 652.717 1108.95 653.375 1108.57C654.043 1108.18 654.791 1107.99 655.619 1107.99C656.446 1107.99 657.188 1108.18 657.846 1108.57C658.503 1108.95 659.019 1109.49 659.393 1110.18C659.767 1110.86 659.954 1111.64 659.954 1112.53L659.937 1112.9ZM655.619 1109.03C654.757 1109.03 654.032 1109.3 653.443 1109.86C652.865 1110.4 652.536 1111.12 652.457 1112H658.798C658.718 1111.12 658.384 1110.4 657.795 1109.86C657.217 1109.3 656.491 1109.03 655.619 1109.03ZM664.808 1117.09C664.082 1117.09 663.385 1116.98 662.717 1116.78C662.059 1116.56 661.544 1116.3 661.17 1115.98L661.714 1115.03C662.088 1115.32 662.558 1115.57 663.125 1115.76C663.691 1115.94 664.281 1116.03 664.893 1116.03C665.709 1116.03 666.309 1115.91 666.695 1115.66C667.091 1115.4 667.29 1115.03 667.29 1114.57C667.29 1114.24 667.182 1113.99 666.967 1113.8C666.751 1113.61 666.479 1113.47 666.151 1113.38C665.822 1113.28 665.386 1113.18 664.842 1113.09C664.116 1112.95 663.533 1112.82 663.091 1112.68C662.649 1112.53 662.269 1112.29 661.952 1111.95C661.646 1111.61 661.493 1111.14 661.493 1110.54C661.493 1109.79 661.804 1109.18 662.428 1108.7C663.051 1108.23 663.918 1107.99 665.029 1107.99C665.607 1107.99 666.185 1108.07 666.763 1108.23C667.341 1108.38 667.817 1108.57 668.191 1108.82L667.664 1109.79C666.927 1109.28 666.049 1109.03 665.029 1109.03C664.258 1109.03 663.674 1109.16 663.278 1109.43C662.892 1109.71 662.7 1110.06 662.7 1110.51C662.7 1110.85 662.807 1111.12 663.023 1111.32C663.249 1111.53 663.527 1111.68 663.856 1111.78C664.184 1111.87 664.638 1111.97 665.216 1112.07C665.93 1112.21 666.502 1112.34 666.933 1112.48C667.363 1112.61 667.732 1112.85 668.038 1113.17C668.344 1113.5 668.497 1113.96 668.497 1114.53C668.497 1115.32 668.168 1115.94 667.511 1116.4C666.865 1116.86 665.964 1117.09 664.808 1117.09ZM670.847 1117.09C670.598 1117.09 670.382 1116.99 670.201 1116.81C670.031 1116.63 669.946 1116.41 669.946 1116.15C669.946 1115.89 670.031 1115.67 670.201 1115.5C670.382 1115.32 670.598 1115.23 670.847 1115.23C671.096 1115.23 671.312 1115.32 671.493 1115.5C671.674 1115.67 671.765 1115.89 671.765 1116.15C671.765 1116.41 671.674 1116.63 671.493 1116.81C671.312 1116.99 671.096 1117.09 670.847 1117.09Z" fill="white"/>
<path d="M484.378 30L480.193 23.955H479.945H475.574V30H470.552V8.3H479.945C481.867 8.3 483.531 8.62033 484.936 9.261C486.362 9.90167 487.457 10.811 488.222 11.989C488.987 13.167 489.369 14.562 489.369 16.174C489.369 17.786 488.976 19.181 488.191 20.359C487.426 21.5163 486.331 22.405 484.905 23.025L489.772 30H484.378ZM484.285 16.174C484.285 14.9547 483.892 14.0247 483.107 13.384C482.322 12.7227 481.175 12.392 479.666 12.392H475.574V19.956H479.666C481.175 19.956 482.322 19.6253 483.107 18.964C483.892 18.3027 484.285 17.3727 484.285 16.174ZM503.857 30.372C501.604 30.372 499.569 29.8863 497.75 28.915C495.952 27.9437 494.536 26.6107 493.503 24.916C492.49 23.2007 491.984 21.2787 491.984 19.15C491.984 17.0213 492.49 15.1097 493.503 13.415C494.536 11.6997 495.952 10.3563 497.75 9.385C499.569 8.41367 501.604 7.928 503.857 7.928C506.11 7.928 508.135 8.41367 509.933 9.385C511.731 10.3563 513.147 11.6997 514.18 13.415C515.213 15.1097 515.73 17.0213 515.73 19.15C515.73 21.2787 515.213 23.2007 514.18 24.916C513.147 26.6107 511.731 27.9437 509.933 28.915C508.135 29.8863 506.11 30.372 503.857 30.372ZM503.857 26.094C505.138 26.094 506.296 25.8047 507.329 25.226C508.362 24.6267 509.168 23.8 509.747 22.746C510.346 21.692 510.646 20.4933 510.646 19.15C510.646 17.8067 510.346 16.608 509.747 15.554C509.168 14.5 508.362 13.6837 507.329 13.105C506.296 12.5057 505.138 12.206 503.857 12.206C502.576 12.206 501.418 12.5057 500.385 13.105C499.352 13.6837 498.535 14.5 497.936 15.554C497.357 16.608 497.068 17.8067 497.068 19.15C497.068 20.4933 497.357 21.692 497.936 22.746C498.535 23.8 499.352 24.6267 500.385 25.226C501.418 25.8047 502.576 26.094 503.857 26.094ZM533.492 25.35H523.417L521.495 30H516.349L526.021 8.3H530.981L540.684 30H535.414L533.492 25.35ZM531.911 21.537L528.47 13.229L525.029 21.537H531.911ZM542.936 8.3H552.794C555.15 8.3 557.227 8.75467 559.025 9.664C560.843 10.5527 562.249 11.8133 563.241 13.446C564.253 15.0787 564.76 16.98 564.76 19.15C564.76 21.32 564.253 23.2213 563.241 24.854C562.249 26.4867 560.843 27.7577 559.025 28.667C557.227 29.5557 555.15 30 552.794 30H542.936V8.3ZM552.546 25.877C554.716 25.877 556.441 25.2777 557.723 24.079C559.025 22.8597 559.676 21.2167 559.676 19.15C559.676 17.0833 559.025 15.4507 557.723 14.252C556.441 13.0327 554.716 12.423 552.546 12.423H547.958V25.877H552.546ZM588.294 30L588.263 16.98L581.877 27.706H579.614L573.259 17.259V30H568.547V8.3H572.701L580.823 21.785L588.821 8.3H592.944L593.006 30H588.294ZM612.446 25.35H602.371L600.449 30H595.303L604.975 8.3H609.935L619.638 30H614.368L612.446 25.35ZM610.865 21.537L607.424 13.229L603.983 21.537H610.865ZM631.282 8.3C633.204 8.3 634.868 8.62033 636.273 9.261C637.699 9.90167 638.794 10.811 639.559 11.989C640.324 13.167 640.706 14.562 640.706 16.174C640.706 17.7653 640.324 19.1603 639.559 20.359C638.794 21.537 637.699 22.4463 636.273 23.087C634.868 23.707 633.204 24.017 631.282 24.017H626.911V30H621.889V8.3H631.282ZM631.003 19.925C632.512 19.925 633.659 19.6047 634.444 18.964C635.229 18.3027 635.622 17.3727 635.622 16.174C635.622 14.9547 635.229 14.0247 634.444 13.384C633.659 12.7227 632.512 12.392 631.003 12.392H626.911V19.925H631.003Z" fill="white"/>
<path d="M196 135.5C591 91.9999 882.5 187 882.5 187" stroke="#727272" stroke-width="3" stroke-dasharray="6 6"/>
<path d="M277.48 401.593C556 196 889.5 187 889.5 187" stroke="#727272" stroke-width="3" stroke-dasharray="6 6"/>
<path d="M277.298 403C277.298 403 277.298 527.5 136 547" stroke="#727272" stroke-width="3" stroke-dasharray="6 6"/>
<path d="M529.5 550C378.938 617.814 133.5 544.5 133.5 544.5" stroke="#727272" stroke-width="3" stroke-dasharray="6 6"/>
<path d="M531.5 550C531.5 550 574.5 640.5 837.5 708.586" stroke="#727272" stroke-width="3" stroke-dasharray="6 6"/>
<path d="M199.811 789.512C199.811 789.512 518 641.5 836.811 708.512" stroke="#727272" stroke-width="3" stroke-dasharray="6 6"/>
<path d="M577.5 1010.5C577.5 1010.5 515.749 791.5 202 791.5" stroke="#727272" stroke-width="3" stroke-dasharray="6 6"/>
<path d="M887.102 175.661V112" stroke="#CBCBCB" stroke-width="4" stroke-miterlimit="10"/>
<path d="M942 145.051H887.102V112H942L932.89 128.525L942 145.051Z" stroke="#CBCBCB" stroke-width="4" stroke-miterlimit="10"/>
<path d="M917.181 133.022V135.398H907.659V133.508L912.519 128.918C913.035 128.426 913.383 128.006 913.563 127.658C913.743 127.298 913.833 126.944 913.833 126.596C913.833 126.092 913.659 125.708 913.311 125.444C912.975 125.168 912.477 125.03 911.817 125.03C911.265 125.03 910.767 125.138 910.323 125.354C909.879 125.558 909.507 125.87 909.207 126.29L907.083 124.922C907.575 124.19 908.253 123.62 909.117 123.212C909.981 122.792 910.971 122.582 912.087 122.582C913.023 122.582 913.839 122.738 914.535 123.05C915.243 123.35 915.789 123.782 916.173 124.346C916.569 124.898 916.767 125.552 916.767 126.308C916.767 126.992 916.623 127.634 916.335 128.234C916.047 128.834 915.489 129.518 914.661 130.286L911.763 133.022H917.181Z" fill="white"/>
<path d="M887.5 203C896.06 203 903 196.06 903 187.5C903 178.939 896.06 172 887.5 172C878.94 172 872 178.939 872 187.5C872 196.06 878.94 203 887.5 203Z" fill="white"/>
<path d="M887.5 199C893.851 199 899 193.851 899 187.5C899 181.148 893.851 176 887.5 176C881.149 176 876 181.148 876 187.5C876 193.851 881.149 199 887.5 199Z" fill="#DB2A2B"/>
<path d="M277.102 390.661V327" stroke="#CBCBCB" stroke-width="4" stroke-miterlimit="10"/>
<path d="M332 360.051H277.102V327H332L322.89 343.525L332 360.051Z" stroke="#CBCBCB" stroke-width="4" stroke-miterlimit="10"/>
<path d="M303.635 342.928C304.739 343.108 305.585 343.522 306.173 344.17C306.761 344.806 307.055 345.598 307.055 346.546C307.055 347.278 306.863 347.956 306.479 348.58C306.095 349.192 305.507 349.684 304.715 350.056C303.935 350.428 302.975 350.614 301.835 350.614C300.947 350.614 300.071 350.5 299.207 350.272C298.355 350.032 297.629 349.696 297.029 349.264L298.163 347.032C298.643 347.392 299.195 347.674 299.819 347.878C300.455 348.07 301.103 348.166 301.763 348.166C302.495 348.166 303.071 348.028 303.491 347.752C303.911 347.464 304.121 347.062 304.121 346.546C304.121 345.514 303.335 344.998 301.763 344.998H300.431V343.072L303.023 340.138H297.659V337.798H306.479V339.688L303.635 342.928Z" fill="white"/>
<path d="M277.5 418C286.06 418 293 411.06 293 402.5C293 393.939 286.06 387 277.5 387C268.94 387 262 393.939 262 402.5C262 411.06 268.94 418 277.5 418Z" fill="white"/>
<path d="M277.5 414C283.851 414 289 408.851 289 402.5C289 396.148 283.851 391 277.5 391C271.149 391 266 396.148 266 402.5C266 408.851 271.149 414 277.5 414Z" fill="#DB2A2B"/>
<path d="M134.102 533.661V470" stroke="#CBCBCB" stroke-width="4" stroke-miterlimit="10"/>
<path d="M189 503.051H134.102V470H189L179.89 486.525L189 503.051Z" stroke="#CBCBCB" stroke-width="4" stroke-miterlimit="10"/>
<path d="M165.408 490.752H163.356V493.398H160.512V490.752H153.726V488.79L159.666 480.798H162.726L157.218 488.376H160.602V486.018H163.356V488.376H165.408V490.752Z" fill="white"/>
<path d="M134.5 561C143.06 561 150 554.06 150 545.5C150 536.939 143.06 530 134.5 530C125.94 530 119 536.939 119 545.5C119 554.06 125.94 561 134.5 561Z" fill="white"/>
<path d="M134.5 557C140.851 557 146 551.851 146 545.5C146 539.148 140.851 534 134.5 534C128.149 534 123 539.148 123 545.5C123 551.851 128.149 557 134.5 557Z" fill="#DB2A2B"/>
<path d="M529.102 538.661V475" stroke="#CBCBCB" stroke-width="4" stroke-miterlimit="10"/>
<path d="M584 508.051H529.102V475H584L574.89 491.525L584 508.051Z" stroke="#CBCBCB" stroke-width="4" stroke-miterlimit="10"/>
<path d="M554.043 490.532C555.819 490.532 557.127 490.886 557.967 491.594C558.819 492.302 559.245 493.25 559.245 494.438C559.245 495.206 559.053 495.908 558.669 496.544C558.285 497.168 557.697 497.672 556.905 498.056C556.125 498.428 555.159 498.614 554.007 498.614C553.119 498.614 552.243 498.5 551.379 498.272C550.527 498.032 549.801 497.696 549.201 497.264L550.353 495.032C550.833 495.392 551.385 495.674 552.009 495.878C552.633 496.07 553.275 496.166 553.935 496.166C554.667 496.166 555.243 496.022 555.663 495.734C556.083 495.446 556.293 495.044 556.293 494.528C556.293 493.988 556.071 493.58 555.627 493.304C555.195 493.028 554.439 492.89 553.359 492.89H550.137L550.785 485.798H558.471V488.138H553.215L553.017 490.532H554.043Z" fill="white"/>
<path d="M529.5 566C538.06 566 545 559.06 545 550.5C545 541.939 538.06 535 529.5 535C520.94 535 514 541.939 514 550.5C514 559.06 520.94 566 529.5 566Z" fill="white"/>
<path d="M529.5 562C535.851 562 541 556.851 541 550.5C541 544.148 535.851 539 529.5 539C523.149 539 518 544.148 518 550.5C518 556.851 523.149 562 529.5 562Z" fill="#DB2A2B"/>
<path d="M837.102 697.661V634" stroke="#CBCBCB" stroke-width="4" stroke-miterlimit="10"/>
<path d="M892 667.051H837.102V634H892L882.89 650.525L892 667.051Z" stroke="#CBCBCB" stroke-width="4" stroke-miterlimit="10"/>
<path d="M863.411 649.496C864.215 649.496 864.947 649.658 865.607 649.982C866.267 650.306 866.789 650.768 867.173 651.368C867.557 651.956 867.749 652.64 867.749 653.42C867.749 654.26 867.539 654.998 867.119 655.634C866.699 656.27 866.123 656.762 865.391 657.11C864.671 657.446 863.867 657.614 862.979 657.614C861.215 657.614 859.835 657.074 858.839 655.994C857.843 654.914 857.345 653.372 857.345 651.368C857.345 649.94 857.615 648.716 858.155 647.696C858.695 646.676 859.445 645.902 860.405 645.374C861.377 644.846 862.499 644.582 863.771 644.582C864.443 644.582 865.085 644.66 865.697 644.816C866.321 644.96 866.849 645.17 867.281 645.446L866.201 647.588C865.577 647.168 864.791 646.958 863.843 646.958C862.775 646.958 861.929 647.27 861.305 647.894C860.681 648.518 860.345 649.424 860.297 650.612C861.041 649.868 862.079 649.496 863.411 649.496ZM862.817 655.436C863.441 655.436 863.945 655.268 864.329 654.932C864.725 654.596 864.923 654.14 864.923 653.564C864.923 652.988 864.725 652.532 864.329 652.196C863.945 651.848 863.429 651.674 862.781 651.674C862.145 651.674 861.623 651.854 861.215 652.214C860.807 652.562 860.603 653.012 860.603 653.564C860.603 654.116 860.801 654.566 861.197 654.914C861.593 655.262 862.133 655.436 862.817 655.436Z" fill="white"/>
<path d="M837.5 725C846.06 725 853 718.06 853 709.5C853 700.939 846.06 694 837.5 694C828.94 694 822 700.939 822 709.5C822 718.06 828.94 725 837.5 725Z" fill="white"/>
<path d="M837.5 721C843.851 721 849 715.851 849 709.5C849 703.148 843.851 698 837.5 698C831.149 698 826 703.148 826 709.5C826 715.851 831.149 721 837.5 721Z" fill="#DB2A2B"/>
<path d="M200.102 778.661V715" stroke="#CBCBCB" stroke-width="4" stroke-miterlimit="10"/>
<path d="M255 748.051H200.102V715H255L245.89 731.525L255 748.051Z" stroke="#CBCBCB" stroke-width="4" stroke-miterlimit="10"/>
<path d="M230.358 725.798V727.688L225.678 738.398H222.51L227.028 728.174H222.852V730.226H220.26V725.798H230.358Z" fill="white"/>
<path d="M200.5 806C209.06 806 216 799.06 216 790.5C216 781.939 209.06 775 200.5 775C191.94 775 185 781.939 185 790.5C185 799.06 191.94 806 200.5 806Z" fill="white"/>
<path d="M200.5 802C206.851 802 212 796.851 212 790.5C212 784.148 206.851 779 200.5 779C194.149 779 189 784.148 189 790.5C189 796.851 194.149 802 200.5 802Z" fill="#DB2A2B"/>
<path d="M577.102 998.661V935" stroke="#CBCBCB" stroke-width="4" stroke-miterlimit="10"/>
<path d="M632 968.051H577.102V935H632L622.89 951.525L632 968.051Z" stroke="#CBCBCB" stroke-width="4" stroke-miterlimit="10"/>
<path d="M605.756 951.774C606.38 952.086 606.854 952.494 607.178 952.998C607.514 953.502 607.682 954.084 607.682 954.744C607.682 955.524 607.46 956.208 607.016 956.796C606.572 957.372 605.948 957.822 605.144 958.146C604.34 958.458 603.41 958.614 602.354 958.614C601.298 958.614 600.368 958.458 599.564 958.146C598.772 957.822 598.154 957.372 597.71 956.796C597.278 956.208 597.062 955.524 597.062 954.744C597.062 954.084 597.224 953.502 597.548 952.998C597.884 952.494 598.358 952.086 598.97 951.774C598.502 951.486 598.142 951.126 597.89 950.694C597.638 950.25 597.512 949.746 597.512 949.182C597.512 948.45 597.716 947.814 598.124 947.274C598.532 946.734 599.102 946.32 599.834 946.032C600.566 945.732 601.406 945.582 602.354 945.582C603.314 945.582 604.16 945.732 604.892 946.032C605.636 946.32 606.212 946.734 606.62 947.274C607.028 947.814 607.232 948.45 607.232 949.182C607.232 949.746 607.106 950.25 606.854 950.694C606.602 951.126 606.236 951.486 605.756 951.774ZM602.354 947.724C601.766 947.724 601.292 947.868 600.932 948.156C600.584 948.432 600.41 948.816 600.41 949.308C600.41 949.788 600.584 950.166 600.932 950.442C601.28 950.718 601.754 950.856 602.354 950.856C602.954 950.856 603.434 950.718 603.794 950.442C604.154 950.166 604.334 949.788 604.334 949.308C604.334 948.816 604.154 948.432 603.794 948.156C603.434 947.868 602.954 947.724 602.354 947.724ZM602.354 956.472C603.086 956.472 603.662 956.31 604.082 955.986C604.514 955.65 604.73 955.206 604.73 954.654C604.73 954.102 604.514 953.664 604.082 953.34C603.662 953.016 603.086 952.854 602.354 952.854C601.634 952.854 601.064 953.016 600.644 953.34C600.224 953.664 600.014 954.102 600.014 954.654C600.014 955.218 600.224 955.662 600.644 955.986C601.064 956.31 601.634 956.472 602.354 956.472Z" fill="white"/>
<path d="M577.5 1026C586.06 1026 593 1019.06 593 1010.5C593 1001.94 586.06 995 577.5 995C568.94 995 562 1001.94 562 1010.5C562 1019.06 568.94 1026 577.5 1026Z" fill="white"/>
<path d="M577.5 1022C583.851 1022 589 1016.85 589 1010.5C589 1004.15 583.851 999 577.5 999C571.149 999 566 1004.15 566 1010.5C566 1016.85 571.149 1022 577.5 1022Z" fill="#DB2A2B"/>
<path d="M195.102 124.661V61" stroke="#CBCBCB" stroke-width="4" stroke-miterlimit="10"/>
<path d="M250 94.0506H195.102V61H250L240.89 77.5253L250 94.0506Z" stroke="#CBCBCB" stroke-width="4" stroke-miterlimit="10"/>
<path d="M222.411 71.7982V84.3982H219.495V74.1382H216.975V71.7982H222.411Z" fill="white"/>
<path d="M195.5 152C204.06 152 211 145.06 211 136.5C211 127.939 204.06 121 195.5 121C186.94 121 180 127.939 180 136.5C180 145.06 186.94 152 195.5 152Z" fill="white"/>
<path d="M195.5 148C201.851 148 207 142.851 207 136.5C207 130.148 201.851 125 195.5 125C189.149 125 184 130.148 184 136.5C184 142.851 189.149 148 195.5 148Z" fill="#DB2A2B"/>
</svg>
