<svg width="34" height="28" viewBox="0 0 34 28" fill="none" xmlns="http://www.w3.org/2000/svg">
<path d="M29.8976 7.18191C29.9164 7.47291 29.9164 7.7639 29.9164 8.0549C29.9164 16.9457 23.0455 27.1924 10.4855 27.1924C6.61946 27.1924 3.0237 26.0904 0 24.171C0.546907 24.2329 1.08124 24.2515 1.64701 24.2515C4.84044 24.2515 7.77613 23.1866 10.1272 21.3787C7.12236 21.3168 4.60785 19.3789 3.74034 16.7166C4.17409 16.7785 4.59527 16.8219 5.03531 16.8219C5.65137 16.8219 6.26114 16.7414 6.83319 16.5928C3.70262 15.9675 1.35784 13.2618 1.35784 9.9928V9.91231C2.26935 10.4138 3.32544 10.7234 4.4444 10.7667C2.60252 9.5594 1.40184 7.49767 1.40184 5.16353C1.40184 3.91287 1.7413 2.76747 2.33221 1.77066C5.69537 5.85077 10.7433 8.51925 16.4135 8.81024C16.3066 8.30874 16.2438 7.78867 16.2438 7.26859C16.2438 3.55996 19.2863 0.538574 23.0707 0.538574C25.0383 0.538574 26.811 1.34964 28.062 2.66221C29.6021 2.37122 31.0857 1.80781 32.3932 1.04008C31.884 2.6003 30.8091 3.91287 29.3884 4.74251C30.7651 4.59392 32.0915 4.22244 33.3236 3.70236C32.3932 5.03351 31.2303 6.22225 29.8976 7.18191Z" fill="#8A8A8A"/>
</svg>
